<svg width="162" height="24" viewBox="0 0 162 24" fill="none" xmlns="http://www.w3.org/2000/svg">
<path d="M11 21L1 12L11 3" stroke="#7C7C7C" stroke-linecap="round" stroke-linejoin="round"/>
<path d="M24.38 5.72V20H27.52V15.4L29.32 13.58L33.62 20H37.56L31.44 11.36L37.02 5.72H33.1L27.52 11.64V5.72H24.38ZM39.5136 18.62L38.3136 19.98L39.0536 20.6L40.2336 19.28C41.1269 19.9333 42.2269 20.26 43.5336 20.26C44.3469 20.26 45.0803 20.1333 45.7336 19.88C46.4003 19.6267 46.9669 19.2667 47.4336 18.8C47.9003 18.32 48.2603 17.7467 48.5136 17.08C48.7669 16.4133 48.8936 15.6667 48.8936 14.84C48.8936 14.04 48.7736 13.3133 48.5336 12.66C48.2936 12.0067 47.9536 11.4467 47.5136 10.98L48.5936 9.76L47.8536 9.12L46.7936 10.34C45.9003 9.7 44.8136 9.38 43.5336 9.38C42.7203 9.38 41.9869 9.51333 41.3336 9.78C40.6803 10.0333 40.1203 10.4 39.6536 10.88C39.1869 11.3467 38.8269 11.92 38.5736 12.6C38.3203 13.2667 38.1936 14.0133 38.1936 14.84C38.1936 16.4 38.6336 17.66 39.5136 18.62ZM41.8336 17.46L45.7336 13.02C45.8403 13.2867 45.9203 13.58 45.9736 13.9C46.0269 14.2067 46.0536 14.52 46.0536 14.84C46.0536 15.2533 46.0136 15.66 45.9336 16.06C45.8536 16.4467 45.7136 16.8 45.5136 17.12C45.3269 17.4267 45.0669 17.6733 44.7336 17.86C44.4136 18.0467 44.0136 18.14 43.5336 18.14C43.1469 18.14 42.8136 18.08 42.5336 17.96C42.2536 17.84 42.0203 17.6733 41.8336 17.46ZM45.1936 12.16L41.3336 16.56C41.2269 16.3067 41.1469 16.0333 41.0936 15.74C41.0536 15.4467 41.0336 15.1467 41.0336 14.84C41.0336 14.4267 41.0736 14.02 41.1536 13.62C41.2336 13.22 41.3669 12.8667 41.5536 12.56C41.7536 12.2533 42.0136 12.0067 42.3336 11.82C42.6536 11.62 43.0536 11.52 43.5336 11.52C44.2403 11.52 44.7936 11.7333 45.1936 12.16ZM58.3202 14.84C58.3202 15.2667 58.2735 15.68 58.1802 16.08C58.0868 16.48 57.9402 16.8333 57.7402 17.14C57.5402 17.4467 57.2868 17.6933 56.9802 17.88C56.6868 18.0533 56.3268 18.14 55.9002 18.14C55.4868 18.14 55.1268 18.0533 54.8202 17.88C54.5135 17.6933 54.2602 17.4467 54.0602 17.14C53.8602 16.8333 53.7135 16.48 53.6202 16.08C53.5268 15.68 53.4802 15.2667 53.4802 14.84C53.4802 14.4 53.5268 13.98 53.6202 13.58C53.7135 13.18 53.8602 12.8267 54.0602 12.52C54.2602 12.2133 54.5135 11.9733 54.8202 11.8C55.1268 11.6133 55.4868 11.52 55.9002 11.52C56.3268 11.52 56.6868 11.6133 56.9802 11.8C57.2868 11.9733 57.5402 12.2133 57.7402 12.52C57.9402 12.8267 58.0868 13.18 58.1802 13.58C58.2735 13.98 58.3202 14.4 58.3202 14.84ZM50.7402 5.72V20H53.4402V18.68H53.4802C53.7868 19.2533 54.2402 19.66 54.8402 19.9C55.4402 20.14 56.1202 20.26 56.8802 20.26C57.4002 20.26 57.9135 20.1533 58.4202 19.94C58.9268 19.7267 59.3802 19.4 59.7802 18.96C60.1935 18.52 60.5268 17.96 60.7802 17.28C61.0335 16.5867 61.1602 15.7667 61.1602 14.82C61.1602 13.8733 61.0335 13.06 60.7802 12.38C60.5268 11.6867 60.1935 11.12 59.7802 10.68C59.3802 10.24 58.9268 9.91333 58.4202 9.7C57.9135 9.48667 57.4002 9.38 56.8802 9.38C56.2402 9.38 55.6202 9.50667 55.0202 9.76C54.4335 10 53.9668 10.3867 53.6202 10.92H53.5802V5.72H50.7402ZM73.7531 18.14C73.2998 18.14 72.9131 18.0467 72.5931 17.86C72.2731 17.6733 72.0131 17.4333 71.8131 17.14C71.6265 16.8333 71.4865 16.48 71.3931 16.08C71.3131 15.68 71.2731 15.2733 71.2731 14.86C71.2731 14.4333 71.3131 14.02 71.3931 13.62C71.4731 13.22 71.6065 12.8667 71.7931 12.56C71.9931 12.2533 72.2465 12.0067 72.5531 11.82C72.8731 11.62 73.2665 11.52 73.7331 11.52C74.1865 11.52 74.5665 11.62 74.8731 11.82C75.1931 12.0067 75.4531 12.26 75.6531 12.58C75.8531 12.8867 75.9931 13.24 76.0731 13.64C76.1665 14.04 76.2131 14.4467 76.2131 14.86C76.2131 15.2733 76.1731 15.68 76.0931 16.08C76.0131 16.48 75.8731 16.8333 75.6731 17.14C75.4865 17.4333 75.2331 17.6733 74.9131 17.86C74.6065 18.0467 74.2198 18.14 73.7531 18.14ZM68.5331 9.66V23.62H71.3731V18.72H71.4131C71.7598 19.2267 72.1998 19.6133 72.7331 19.88C73.2798 20.1333 73.8731 20.26 74.5131 20.26C75.2731 20.26 75.9331 20.1133 76.4931 19.82C77.0665 19.5267 77.5398 19.1333 77.9131 18.64C78.2998 18.1467 78.5865 17.58 78.7731 16.94C78.9598 16.3 79.0531 15.6333 79.0531 14.94C79.0531 14.2067 78.9598 13.5067 78.7731 12.84C78.5865 12.16 78.2998 11.5667 77.9131 11.06C77.5265 10.5533 77.0398 10.1467 76.4531 9.84C75.8665 9.53333 75.1665 9.38 74.3531 9.38C73.7131 9.38 73.1265 9.50667 72.5931 9.76C72.0598 10.0133 71.6198 10.42 71.2731 10.98H71.2331V9.66H68.5331ZM80.7597 9.66V20H83.5997V15.34C83.5997 14.8733 83.6464 14.44 83.7397 14.04C83.833 13.64 83.9864 13.2933 84.1997 13C84.4264 12.6933 84.7197 12.4533 85.0797 12.28C85.4397 12.1067 85.8797 12.02 86.3997 12.02C86.573 12.02 86.753 12.0333 86.9397 12.06C87.1264 12.0733 87.2864 12.0933 87.4197 12.12V9.48C87.193 9.41333 86.9864 9.38 86.7997 9.38C86.4397 9.38 86.093 9.43333 85.7597 9.54C85.4264 9.64667 85.113 9.8 84.8197 10C84.5264 10.1867 84.2664 10.42 84.0397 10.7C83.813 10.9667 83.633 11.26 83.4997 11.58H83.4597V9.66H80.7597ZM90.7016 14.84C90.7016 14.4267 90.7416 14.02 90.8216 13.62C90.9016 13.22 91.0349 12.8667 91.2216 12.56C91.4216 12.2533 91.6816 12.0067 92.0016 11.82C92.3216 11.62 92.7216 11.52 93.2016 11.52C93.6816 11.52 94.0816 11.62 94.4016 11.82C94.7349 12.0067 94.9949 12.2533 95.1816 12.56C95.3816 12.8667 95.5216 13.22 95.6016 13.62C95.6816 14.02 95.7216 14.4267 95.7216 14.84C95.7216 15.2533 95.6816 15.66 95.6016 16.06C95.5216 16.4467 95.3816 16.8 95.1816 17.12C94.9949 17.4267 94.7349 17.6733 94.4016 17.86C94.0816 18.0467 93.6816 18.14 93.2016 18.14C92.7216 18.14 92.3216 18.0467 92.0016 17.86C91.6816 17.6733 91.4216 17.4267 91.2216 17.12C91.0349 16.8 90.9016 16.4467 90.8216 16.06C90.7416 15.66 90.7016 15.2533 90.7016 14.84ZM87.8616 14.84C87.8616 15.6667 87.9882 16.4133 88.2416 17.08C88.4949 17.7467 88.8549 18.32 89.3216 18.8C89.7882 19.2667 90.3482 19.6267 91.0016 19.88C91.6549 20.1333 92.3882 20.26 93.2016 20.26C94.0149 20.26 94.7482 20.1333 95.4016 19.88C96.0682 19.6267 96.6349 19.2667 97.1016 18.8C97.5682 18.32 97.9282 17.7467 98.1816 17.08C98.4349 16.4133 98.5616 15.6667 98.5616 14.84C98.5616 14.0133 98.4349 13.2667 98.1816 12.6C97.9282 11.92 97.5682 11.3467 97.1016 10.88C96.6349 10.4 96.0682 10.0333 95.4016 9.78C94.7482 9.51333 94.0149 9.38 93.2016 9.38C92.3882 9.38 91.6549 9.51333 91.0016 9.78C90.3482 10.0333 89.7882 10.4 89.3216 10.88C88.8549 11.3467 88.4949 11.92 88.2416 12.6C87.9882 13.2667 87.8616 14.0133 87.8616 14.84ZM107.748 14.8C107.748 15.2267 107.708 15.64 107.628 16.04C107.548 16.44 107.415 16.8 107.228 17.12C107.041 17.4267 106.788 17.6733 106.468 17.86C106.161 18.0467 105.775 18.14 105.308 18.14C104.868 18.14 104.488 18.0467 104.168 17.86C103.861 17.66 103.601 17.4067 103.388 17.1C103.188 16.78 103.041 16.42 102.948 16.02C102.855 15.62 102.808 15.22 102.808 14.82C102.808 14.3933 102.848 13.9867 102.928 13.6C103.021 13.2 103.161 12.8467 103.348 12.54C103.548 12.2333 103.808 11.9867 104.128 11.8C104.448 11.6133 104.841 11.52 105.308 11.52C105.775 11.52 106.161 11.6133 106.468 11.8C106.775 11.9867 107.021 12.2333 107.208 12.54C107.408 12.8333 107.548 13.18 107.628 13.58C107.708 13.9667 107.748 14.3733 107.748 14.8ZM107.788 18.68V20H110.488V5.72H107.648V10.92H107.608C107.288 10.4133 106.848 10.0333 106.288 9.78C105.741 9.51333 105.161 9.38 104.548 9.38C103.788 9.38 103.121 9.53333 102.548 9.84C101.975 10.1333 101.495 10.5267 101.108 11.02C100.735 11.5133 100.448 12.0867 100.248 12.74C100.061 13.38 99.9681 14.0467 99.9681 14.74C99.9681 15.46 100.061 16.1533 100.248 16.82C100.448 17.4867 100.735 18.08 101.108 18.6C101.495 19.1067 101.981 19.5133 102.568 19.82C103.155 20.1133 103.835 20.26 104.608 20.26C105.288 20.26 105.895 20.14 106.428 19.9C106.975 19.6467 107.415 19.24 107.748 18.68H107.788ZM122.335 20V9.66H119.495V15.08C119.495 16.1333 119.321 16.8933 118.975 17.36C118.628 17.8133 118.068 18.04 117.295 18.04C116.615 18.04 116.141 17.8333 115.875 17.42C115.608 16.9933 115.475 16.3533 115.475 15.5V9.66H112.635V16.02C112.635 16.66 112.688 17.2467 112.795 17.78C112.915 18.3 113.115 18.7467 113.395 19.12C113.675 19.48 114.055 19.76 114.535 19.96C115.028 20.16 115.655 20.26 116.415 20.26C117.015 20.26 117.601 20.1267 118.175 19.86C118.748 19.5933 119.215 19.16 119.575 18.56H119.635V20H122.335ZM124.75 5.72V20H127.59V16.44L128.69 15.38L131.53 20H134.97L130.63 13.46L134.53 9.66H131.17L127.59 13.38V5.72H124.75ZM139.575 9.66V6.56H136.735V9.66H135.015V11.56H136.735V17.66C136.735 18.18 136.821 18.6 136.995 18.92C137.168 19.24 137.401 19.4867 137.695 19.66C138.001 19.8333 138.348 19.9467 138.735 20C139.135 20.0667 139.555 20.1 139.995 20.1C140.275 20.1 140.561 20.0933 140.855 20.08C141.148 20.0667 141.415 20.04 141.655 20V17.8C141.521 17.8267 141.381 17.8467 141.235 17.86C141.088 17.8733 140.935 17.88 140.775 17.88C140.295 17.88 139.975 17.8 139.815 17.64C139.655 17.48 139.575 17.16 139.575 16.68V11.56H141.655V9.66H139.575ZM149.966 13.72H145.346C145.359 13.52 145.399 13.2933 145.466 13.04C145.546 12.7867 145.672 12.5467 145.846 12.32C146.032 12.0933 146.272 11.9067 146.566 11.76C146.872 11.6 147.252 11.52 147.706 11.52C148.399 11.52 148.912 11.7067 149.246 12.08C149.592 12.4533 149.832 13 149.966 13.72ZM145.346 15.52H152.806C152.859 14.72 152.792 13.9533 152.606 13.22C152.419 12.4867 152.112 11.8333 151.686 11.26C151.272 10.6867 150.739 10.2333 150.086 9.9C149.432 9.55333 148.666 9.38 147.786 9.38C146.999 9.38 146.279 9.52 145.626 9.8C144.986 10.08 144.432 10.4667 143.966 10.96C143.499 11.44 143.139 12.0133 142.886 12.68C142.632 13.3467 142.506 14.0667 142.506 14.84C142.506 15.64 142.626 16.3733 142.866 17.04C143.119 17.7067 143.472 18.28 143.926 18.76C144.379 19.24 144.932 19.6133 145.586 19.88C146.239 20.1333 146.972 20.26 147.786 20.26C148.959 20.26 149.959 19.9933 150.786 19.46C151.612 18.9267 152.226 18.04 152.626 16.8H150.126C150.032 17.12 149.779 17.4267 149.366 17.72C148.952 18 148.459 18.14 147.886 18.14C147.086 18.14 146.472 17.9333 146.046 17.52C145.619 17.1067 145.386 16.44 145.346 15.52ZM154.49 9.66V20H157.33V15.34C157.33 14.8733 157.377 14.44 157.47 14.04C157.563 13.64 157.717 13.2933 157.93 13C158.157 12.6933 158.45 12.4533 158.81 12.28C159.17 12.1067 159.61 12.02 160.13 12.02C160.303 12.02 160.483 12.0333 160.67 12.06C160.857 12.0733 161.017 12.0933 161.15 12.12V9.48C160.923 9.41333 160.717 9.38 160.53 9.38C160.17 9.38 159.823 9.43333 159.49 9.54C159.157 9.64667 158.843 9.8 158.55 10C158.257 10.1867 157.997 10.42 157.77 10.7C157.543 10.9667 157.363 11.26 157.23 11.58H157.19V9.66H154.49Z" fill="#7C7C7C"/>
</svg>
