<svg width="35" height="34" viewBox="0 0 35 34" fill="none" xmlns="http://www.w3.org/2000/svg">
<path d="M24.5987 4.94358C24.5987 4.75628 24.5243 4.57665 24.3918 4.4442C24.2594 4.31176 24.0797 4.23736 23.8924 4.23736H20.3613C18.5832 4.14878 16.8423 4.76758 15.5191 5.95854C14.1958 7.1495 13.3976 8.8158 13.2991 10.5934V14.407H9.76796C9.58066 14.407 9.40103 14.4814 9.26859 14.6138C9.13614 14.7463 9.06174 14.9259 9.06174 15.1132V18.7856C9.06174 18.9729 9.13614 19.1525 9.26859 19.2849C9.40103 19.4174 9.58066 19.4918 9.76796 19.4918H13.2991V28.9552C13.2991 29.1425 13.3735 29.3221 13.5059 29.4546C13.6384 29.587 13.818 29.6614 14.0053 29.6614H18.2426C18.43 29.6614 18.6096 29.587 18.742 29.4546C18.8745 29.3221 18.9489 29.1425 18.9489 28.9552V19.4918H22.6495C22.8065 19.494 22.9599 19.4439 23.0852 19.3492C23.2105 19.2546 23.3008 19.1209 23.3416 18.9692L24.3585 15.2968C24.3866 15.1925 24.3904 15.0831 24.3696 14.977C24.3488 14.871 24.3039 14.7711 24.2384 14.6852C24.1729 14.5992 24.0885 14.5294 23.9918 14.4812C23.8951 14.433 23.7886 14.4076 23.6806 14.407H18.9489V10.5934C18.984 10.2438 19.1482 9.91979 19.4094 9.68473C19.6705 9.44968 20.0099 9.32041 20.3613 9.32217H23.8924C24.0797 9.32217 24.2594 9.24776 24.3918 9.11532C24.5243 8.98288 24.5987 8.80325 24.5987 8.61594V4.94358Z" fill="#525252"/>
</svg>
