<?xml version="1.0" encoding="utf-8"?>
<!-- Generator: Adobe Illustrator 27.0.1, SVG Export Plug-In . SVG Version: 6.00 Build 0)  -->
<svg version="1.1" id="Layer_1" xmlns="http://www.w3.org/2000/svg" xmlns:xlink="http://www.w3.org/1999/xlink" x="0px" y="0px"
	 viewBox="0 0 32 32" style="enable-background:new 0 0 32 32;" xml:space="preserve">
<style type="text/css">
	.st0{fill:#616161;}
</style>
<g>
	<path class="st0" d="M11.6,29c1.1,0,2-0.9,2-2s-0.9-2-2-2c-1.1,0-2,0.9-2,2S10.5,29,11.6,29z"/>
</g>
<g>
	<path class="st0" d="M24.6,29c1.1,0,2-0.9,2-2s-0.9-2-2-2s-2,0.9-2,2S23.5,29,24.6,29z"/>
</g>
<path class="st0" d="M12.1,23c-0.6,0-1.3-0.2-1.8-0.6c-0.5-0.4-0.9-1-1.1-1.6L4.7,5H2.6c-0.6,0-1-0.4-1-1s0.4-1,1-1h2.1
	c0.4,0,0.9,0.1,1.2,0.4c0.3,0.3,0.6,0.6,0.7,1l1,3.5h21.7c0.3,0,0.6,0.1,0.8,0.4c0.2,0.3,0.2,0.6,0.2,0.9L27,20.8
	c-0.2,0.6-0.6,1.2-1.1,1.6c-0.5,0.4-1.2,0.6-1.8,0.6H12.1C12.2,23,12.1,23,12.1,23z M8.3,10l2.9,10.3c0.1,0.2,0.2,0.4,0.4,0.5
	s0.4,0.2,0.6,0.2h12c0.2,0,0.4-0.1,0.6-0.2s0.3-0.3,0.4-0.5L28,10H8.3z"/>
</svg>
