<svg width="35" height="34" viewBox="0 0 35 34" fill="none" xmlns="http://www.w3.org/2000/svg">
<path d="M21.8843 11.8646C20.8018 11.8608 19.7291 12.0706 18.7277 12.4819C17.7263 12.8932 16.8158 13.4979 16.0483 14.2614C15.2809 15.0249 14.6715 15.9323 14.2551 16.9316C13.8387 17.9308 13.6234 19.0024 13.6215 20.085V28.3902C13.6215 28.7273 13.7555 29.0507 13.9938 29.2891C14.2322 29.5275 14.5556 29.6614 14.8927 29.6614H17.8589C18.196 29.6614 18.5193 29.5275 18.7577 29.2891C18.9961 29.0507 19.1301 28.7273 19.1301 28.3902V20.085C19.1298 19.7 19.2107 19.3192 19.3674 18.9675C19.5241 18.6158 19.7533 18.3011 20.0398 18.0439C20.3263 17.7867 20.6638 17.5928 21.0303 17.4748C21.3968 17.3568 21.7841 17.3173 22.1668 17.359C22.8533 17.4454 23.4841 17.7808 23.9398 18.3015C24.3954 18.8222 24.644 19.492 24.6386 20.1839V28.3902C24.6386 28.7273 24.7725 29.0507 25.0109 29.2891C25.2493 29.5275 25.5727 29.6614 25.9098 29.6614H28.876C29.2131 29.6614 29.5364 29.5275 29.7748 29.2891C30.0132 29.0507 30.1472 28.7273 30.1472 28.3902V20.085C30.1453 19.0024 29.93 17.9308 29.5136 16.9316C29.0972 15.9323 28.4878 15.0249 27.7203 14.2614C26.9529 13.4979 26.0424 12.8932 25.041 12.4819C24.0396 12.0706 22.9669 11.8608 21.8843 11.8646Z" fill="#444444"/>
<path d="M9.80793 13.1357H5.99432C5.29225 13.1357 4.72311 13.7049 4.72311 14.4069V28.3902C4.72311 29.0922 5.29225 29.6614 5.99432 29.6614H9.80793C10.51 29.6614 11.0791 29.0922 11.0791 28.3902V14.4069C11.0791 13.7049 10.51 13.1357 9.80793 13.1357Z" fill="#444444"/>
<path d="M7.90112 10.5933C9.65629 10.5933 11.0791 9.17048 11.0791 7.41531C11.0791 5.66015 9.65629 4.2373 7.90112 4.2373C6.14596 4.2373 4.72311 5.66015 4.72311 7.41531C4.72311 9.17048 6.14596 10.5933 7.90112 10.5933Z" fill="#444444"/>
</svg>
