<svg width="612" height="612" viewBox="0 0 612 612" fill="none" xmlns="http://www.w3.org/2000/svg">
<path d="M544.879 335.856L574.303 333.133L574.325 332.955L546.381 323.345L544.879 335.856ZM584.44 342.327L518.61 351.557L520.219 338.153L534.067 336.824L536.105 319.846L522.966 315.277L524.575 301.873L586.349 326.421L584.44 342.327Z" fill="#FD9792"/>
<path d="M513.315 461.401L505.615 471.825C507.497 473.216 509.607 474.55 511.944 475.829C514.294 477.192 516.778 478.02 519.397 478.313C522.063 478.641 524.802 478.165 527.612 476.885C530.388 475.652 533.148 473.178 535.892 469.462C538.78 465.553 540.404 461.941 540.763 458.626C541.172 455.347 540.657 452.207 539.219 449.205C537.745 446.252 535.486 443.352 532.441 440.506C529.409 437.745 525.938 434.92 522.029 432.032C518.071 429.109 514.327 426.604 510.795 424.518C507.228 422.48 503.817 421.191 500.561 420.651C497.269 420.159 494.14 420.608 491.175 421.997C488.209 423.387 485.282 426.037 482.394 429.946C479.863 433.372 478.344 436.54 477.838 439.447C477.295 442.403 477.537 445.156 478.564 447.704C479.555 450.301 481.145 452.744 483.334 455.032C485.522 457.32 488.016 459.497 490.816 461.565L498.516 451.141C495.716 449.073 493.573 447.229 492.085 445.607C490.645 444.022 489.657 442.583 489.119 441.291C488.63 440.034 488.52 438.871 488.788 437.801C489.069 436.815 489.548 435.864 490.225 434.947C491.045 433.837 491.993 433.008 493.069 432.46C494.158 431.996 495.567 431.956 497.298 432.339C499.042 432.806 501.227 433.786 503.854 435.279C506.445 436.82 509.695 439.035 513.605 441.922C517.273 444.631 520.29 447.009 522.657 449.056C525.072 451.139 526.874 452.991 528.062 454.615C529.298 456.274 529.951 457.763 530.02 459.083C530.103 460.486 529.663 461.839 528.7 463.142C526.953 465.507 524.89 466.482 522.511 466.068C520.145 465.737 517.079 464.181 513.315 461.401Z" fill="#FD9792"/>
<path d="M461.857 456.77L452.334 465.561L495.92 512.779L505.443 503.988L461.857 456.77Z" fill="#FD9792"/>
<path d="M475.682 531.16L441.786 476.568L430.775 483.404L445.113 506.495L439.225 510.151C436.931 511.575 434.92 511.976 433.192 511.354C431.464 510.732 429.884 509.382 428.453 507.305L421.643 497.019C420.928 495.981 420.177 494.999 419.391 494.074C418.637 493.201 417.742 492.556 416.707 492.139L404.779 499.545L405.064 500.004C406.431 499.932 407.743 500.565 408.998 501.905C410.151 503.307 411.681 505.43 413.587 508.272C414.556 509.718 415.43 511.012 416.209 512.153C417.019 513.345 417.792 514.419 418.527 515.375C420.732 518.243 422.899 519.97 425.027 520.555C427.156 521.14 429.724 520.782 432.729 519.481L432.824 519.634C430.126 522.227 428.75 525.129 428.696 528.341C428.674 531.604 429.802 535.07 432.081 538.74C435.024 543.481 438.483 546.207 442.456 546.918C446.46 547.68 450.756 546.637 455.344 543.789L475.682 531.16ZM449.86 514.141L459.64 529.892L454.44 533.12C449.343 536.285 445.228 535.344 442.094 530.298C440.259 527.342 439.659 524.783 440.295 522.623C440.963 520.513 442.622 518.635 445.272 516.99L449.86 514.141Z" fill="#FD9792"/>
<path d="M383.497 553.291L371.17 557.291C371.893 559.517 372.832 561.83 373.99 564.23C375.109 566.705 376.648 568.824 378.607 570.585C380.585 572.403 383.089 573.609 386.121 574.202C389.095 574.814 392.779 574.407 397.173 572.98C401.796 571.48 405.218 569.487 407.438 567C409.678 564.57 411.085 561.716 411.662 558.438C412.181 555.178 412.03 551.506 411.208 547.42C410.348 543.409 409.168 539.093 407.668 534.47C406.149 529.79 404.56 525.575 402.901 521.824C401.185 518.091 399.16 515.058 396.826 512.725C394.435 510.41 391.629 508.955 388.408 508.36C385.187 507.766 381.265 508.218 376.642 509.719C372.59 511.034 369.513 512.726 367.409 514.797C365.248 516.886 363.844 519.266 363.197 521.936C362.493 524.625 362.365 527.536 362.815 530.67C363.264 533.805 364.026 537.027 365.1 540.337L377.427 536.336C376.353 533.026 375.682 530.279 375.415 528.095C375.166 525.968 375.199 524.223 375.513 522.859C375.846 521.552 376.433 520.542 377.274 519.827C378.076 519.189 379.019 518.693 380.103 518.341C381.416 517.915 382.669 517.793 383.863 517.973C385.018 518.229 386.188 519.016 387.373 520.335C388.52 521.729 389.727 523.797 390.996 526.539C392.207 529.3 393.563 532.992 395.063 537.615C396.471 541.952 397.542 545.641 398.277 548.683C399.03 551.782 399.418 554.337 399.44 556.349C399.48 558.417 399.145 560.008 398.434 561.122C397.685 562.312 396.54 563.156 394.999 563.656C392.202 564.564 389.957 564.157 388.263 562.436C386.531 560.79 384.942 557.742 383.497 553.291Z" fill="#FD9792"/>
<path d="M339.308 585.08L352.234 584.131L348.951 539.431C348.635 535.122 347.81 531.664 346.475 529.054C345.14 526.445 343.461 524.463 341.436 523.107C339.416 521.812 337.161 521.015 334.673 520.716C332.184 520.418 329.623 520.365 326.991 520.558C324.358 520.752 321.834 521.208 319.42 521.926C317.007 522.645 314.899 523.853 313.099 525.549C311.298 527.245 309.926 529.452 308.982 532.168C308.043 534.944 307.723 538.367 308.022 542.436L311.304 587.136L324.229 586.187L320.947 541.487C320.828 539.871 320.838 538.367 320.976 536.973C321.059 535.643 321.363 534.448 321.886 533.387C322.354 532.39 323.045 531.557 323.959 530.888C324.877 530.279 326.114 529.918 327.669 529.804C329.165 529.694 330.442 529.871 331.499 530.335C332.5 530.863 333.335 531.583 334.004 532.497C334.617 533.475 335.091 534.613 335.427 535.912C335.708 537.275 335.908 538.764 336.026 540.38L339.308 585.08Z" fill="#FD9792"/>
<path d="M293.321 523.159L257.836 517.65L256.207 528.145L278.885 531.666L270.656 584.671L283.463 586.659L293.321 523.159Z" fill="#FD9792"/>
<path d="M214.419 528.681L209.318 557.788L209.485 557.856L226.095 533.416L214.419 528.681ZM197.786 565.154L206.167 499.212L218.678 504.284L216.324 517.994L232.171 524.419L240.029 512.941L252.54 518.014L212.632 571.174L197.786 565.154Z" fill="#FD9792"/>
<path d="M161.575 548.147L199.376 496.181L188.896 488.557L172.907 510.537L167.303 506.46C165.12 504.872 163.99 503.16 163.916 501.325C163.841 499.49 164.496 497.518 165.881 495.41L172.843 485.227C173.536 484.173 174.163 483.108 174.723 482.031C175.248 481.004 175.508 479.932 175.504 478.816L164.15 470.557L163.833 470.993C164.415 472.233 164.322 473.686 163.554 475.354C162.689 476.951 161.3 479.167 159.385 482.003C158.41 483.446 157.541 484.743 156.777 485.894C155.979 487.094 155.275 488.214 154.666 489.255C152.84 492.378 152.057 495.036 152.317 497.228C152.577 499.421 153.876 501.664 156.213 503.958L156.107 504.104C152.689 502.581 149.482 502.4 146.486 503.56C143.456 504.769 140.67 507.12 138.129 510.613C134.846 515.125 133.624 519.356 134.462 523.304C135.264 527.301 137.849 530.887 142.216 534.064L161.575 548.147ZM167.613 517.815L156.707 532.808L151.758 529.208C146.906 525.678 146.227 521.512 149.721 516.708C151.768 513.894 153.912 512.375 156.153 512.15C158.359 511.974 160.723 512.803 163.246 514.639L167.613 517.815Z" fill="#FD9792"/>
<path d="M105.141 410.634L63.9344 429.161L61.6831 424.154C60.6744 421.91 60.3125 419.935 60.5976 418.228C60.8034 416.491 61.6069 414.912 63.008 413.493C64.3299 412.043 66.2002 410.643 68.6191 409.293C71.038 407.942 73.9165 406.516 77.2546 405.015C81.2494 403.219 84.649 401.855 87.4535 400.923C90.2334 399.937 92.6164 399.457 94.6025 399.485C96.5641 399.459 98.1835 399.915 99.4608 400.853C100.738 401.792 101.844 403.301 102.779 405.381L105.141 410.634ZM60.5478 444.893L119.157 418.543L110.779 399.909C109.008 395.969 106.942 392.984 104.581 390.953C102.221 388.922 99.4652 387.694 96.3137 387.269C93.1622 386.844 89.5632 387.179 85.5167 388.275C81.3908 389.341 76.7558 391.03 71.6118 393.343C67.2887 395.286 63.4867 397.292 60.2058 399.359C56.9249 401.426 54.3731 403.725 52.5502 406.255C50.648 408.755 49.6062 411.558 49.4246 414.666C49.1883 417.798 49.9927 421.417 51.838 425.521L60.5478 444.893Z" fill="#FD9792"/>
<path d="M27.636 345.066L34.2292 380.366L97.3968 368.568L90.6384 332.383L80.199 334.333L84.5779 357.778L67.5916 360.95L63.6258 339.718L53.1863 341.668L57.1522 362.9L42.2892 365.676L38.0755 343.117L27.636 345.066Z" fill="#FD9792"/>
<path d="M69.0487 309.853L68.4987 322.801L71.1064 322.912C77.041 323.164 81.6631 321.799 84.9727 318.816C88.2847 315.774 90.0961 310.596 90.4068 303.283C90.7047 296.269 89.4078 290.749 86.516 286.723C83.5669 282.634 78.7054 280.446 71.9315 280.158C69.9533 280.074 68.1473 280.178 66.5134 280.468C64.8796 280.759 63.3829 281.356 62.0234 282.26C60.6064 283.1 59.2954 284.276 58.0902 285.786C56.8251 287.293 55.6008 289.253 54.4174 291.665L49.6773 301.463C48.4212 304.172 47.1159 305.918 45.7615 306.701C44.3471 307.482 42.6508 307.83 40.6725 307.746C39.7134 307.706 38.7881 307.576 37.8965 307.358C37.0075 307.08 36.2448 306.658 35.6083 306.09C34.9144 305.46 34.378 304.656 33.9991 303.68C33.6202 302.703 33.4613 301.495 33.5225 300.056C33.6294 297.538 34.545 295.776 36.2694 294.768C37.9337 293.758 40.2945 293.317 43.3518 293.447L43.8789 281.038L42.0805 280.962C39.0232 280.832 36.3939 281.231 34.1926 282.158C31.9339 283.023 30.0769 284.326 28.6218 286.065C27.1092 287.743 26.001 289.798 25.2972 292.23C24.5359 294.6 24.0942 297.223 23.972 300.101C23.7097 306.275 25.062 311.197 28.029 314.866C30.996 318.535 35.6566 320.505 42.0108 320.775C44.6485 320.887 47.0004 320.657 49.0665 320.084C51.0728 319.508 52.8844 318.564 54.5016 317.252C56.0614 315.877 57.4553 314.164 58.6834 312.115C59.9115 310.065 61.0662 307.622 62.1476 304.785C62.9586 302.658 63.7543 300.89 64.5348 299.482C65.2578 298.011 66.0581 296.844 66.9355 295.98C67.813 295.117 68.7988 294.528 69.8931 294.214C70.93 293.838 72.1678 293.68 73.6066 293.741C76.3041 293.856 78.2779 294.751 79.528 296.425C80.7207 298.037 81.275 299.832 81.1909 301.811C81.1197 303.489 80.82 304.888 80.2921 306.006C79.7667 307.065 79.0704 307.906 78.2031 308.53C77.3359 309.154 76.2977 309.56 75.0886 309.749C73.8195 309.935 72.4357 309.996 70.937 309.933L69.0487 309.853Z" fill="#FD9792"/>
<path d="M92.3848 268.402L95.3449 255.784L32.7835 241.107L29.8234 253.724L92.3848 268.402Z" fill="#FD9792"/>
<path d="M68.1772 196.665L73.2701 185.338C67.3053 182.656 62.0962 182.024 57.6428 183.443C53.1347 184.837 49.4291 188.762 46.5258 195.22C44.8282 198.996 44.0428 202.425 44.1696 205.508C44.2965 208.592 45.2741 211.465 47.1025 214.129C48.8762 216.769 51.476 219.253 54.9019 221.583C58.3525 223.858 62.5403 226.103 67.4654 228.317C72.5547 230.605 77.1404 232.404 81.2226 233.713C85.2501 234.997 88.8601 235.601 92.0527 235.523C95.2699 235.391 98.0122 234.486 100.28 232.808C102.572 231.075 104.53 228.403 106.153 224.791C107.408 222.001 108.013 219.411 107.969 217.023C107.894 214.555 107.027 212.093 105.369 209.637L105.443 209.473L110.86 211.909L114.772 203.208L83.1693 188.999L74.5703 208.125L83.2714 212.037L86.7774 204.239L92.7696 206.933C94.3566 207.646 95.6413 208.52 96.6238 209.554C97.5516 210.563 98.2263 211.623 98.648 212.733C99.0942 213.789 99.3121 214.841 99.3015 215.889C99.3155 216.882 99.1626 217.734 98.8427 218.446C98.08 220.142 96.9327 221.304 95.4009 221.931C93.839 222.478 91.9377 222.61 89.697 222.327C87.4262 221.963 84.8187 221.252 81.8747 220.191C78.9307 219.131 75.7075 217.813 72.2052 216.238C64.8723 212.941 59.9018 209.95 57.2937 207.265C54.6856 204.579 54.0213 201.813 55.3007 198.968C55.842 197.764 56.6255 196.899 57.6512 196.373C58.6468 195.768 59.7602 195.414 60.9912 195.309C62.1676 195.18 63.3795 195.265 64.6271 195.563C65.8993 195.806 67.0827 196.173 68.1772 196.665Z" fill="#FD9792"/>
<path d="M77.8463 141.863L68.5802 153.582L118.988 193.438L126.356 184.119L91.0565 156.209L91.1682 156.068L136.292 171.552L145.446 159.974L95.0387 120.119L87.6705 129.438L122.193 156.733L122.082 156.875L77.8463 141.863Z" fill="#FD9792"/>
<path d="M202.599 92.6373L190.607 97.5518L191.597 99.9669C193.85 105.463 197.022 109.091 201.115 110.85C205.263 112.587 210.724 112.068 217.498 109.292C223.993 106.63 228.465 103.144 230.914 98.8333C233.395 94.4446 233.35 89.1135 230.779 82.8399C230.028 81.0078 229.179 79.4105 228.231 78.048C227.284 76.6855 226.116 75.5755 224.727 74.7181C223.371 73.7825 221.755 73.083 219.879 72.6197C217.981 72.1009 215.689 71.8082 213.003 71.7417L202.121 71.5326C199.135 71.5244 197.003 71.0688 195.725 70.1659C194.424 69.2075 193.398 67.8122 192.648 65.9801C192.284 65.0918 192.014 64.1971 191.84 63.2961C191.72 62.3723 191.785 61.5027 192.035 60.6872C192.317 59.7935 192.823 58.9702 193.552 58.2176C194.281 57.4649 195.311 56.8156 196.644 56.2695C198.976 55.3139 200.96 55.4086 202.596 56.5536C204.21 57.6431 205.597 59.6035 206.757 62.435L218.25 57.7253L217.567 56.0597C216.407 53.2283 214.945 51.0066 213.182 49.3947C211.452 47.7045 209.492 46.5623 207.304 45.9679C205.147 45.2953 202.818 45.1478 200.314 45.5254C197.843 45.8248 195.275 46.5205 192.61 47.6126C186.891 49.9561 182.986 53.2425 180.893 57.4719C178.801 61.7012 178.961 66.7584 181.372 72.6434C182.373 75.0862 183.566 77.1263 184.95 78.7637C186.312 80.3456 187.927 81.5966 189.795 82.5168C191.697 83.3587 193.835 83.9089 196.21 84.1674C198.586 84.426 201.288 84.4533 204.317 84.2495C206.589 84.0967 208.527 84.0803 210.133 84.2005C211.771 84.2424 213.166 84.4814 214.317 84.9173C215.468 85.3533 216.415 86.0027 217.158 86.8656C217.933 87.6501 218.594 88.7086 219.14 90.0411C220.164 92.5394 220.177 94.7065 219.178 96.5422C218.213 98.2996 216.814 99.5538 214.982 100.305C213.427 100.942 212.031 101.254 210.795 101.242C209.613 101.208 208.558 100.927 207.629 100.4C206.699 99.873 205.896 99.0998 205.219 98.0804C204.519 97.0056 203.885 95.7741 203.316 94.3862L202.599 92.6373Z" fill="#FD9792"/>
<path d="M274.013 26.707L233.508 33.3136L235.218 43.7951L249.075 41.5349L257.71 94.4753L270.501 92.389L261.866 39.4486L275.723 37.1884L274.013 26.707Z" fill="#FD9792"/>
<path d="M313.4 25.0161L300.474 24.0671L297.192 68.7667C296.876 73.0751 297.187 76.6175 298.127 79.3937C299.066 82.1699 300.438 84.3763 302.243 86.0129C304.052 87.5896 306.166 88.7074 308.584 89.3663C311.003 90.0251 313.528 90.4512 316.161 90.6445C318.794 90.8379 321.357 90.7553 323.85 90.3969C326.343 90.0385 328.604 89.1517 330.633 87.7365C332.662 86.3213 334.342 84.3389 335.672 81.7895C337.007 79.1802 337.823 75.8411 338.122 71.772L341.404 27.0724L328.479 26.1233L325.197 70.823C325.078 72.4386 324.849 73.9258 324.508 75.2845C324.232 76.5878 323.758 77.7261 323.084 78.6994C322.476 79.6173 321.671 80.3403 320.669 80.8684C319.672 81.3367 318.396 81.5137 316.84 81.3994C315.344 81.2896 314.107 80.928 313.129 80.3148C312.216 79.6461 311.495 78.8111 310.967 77.8097C310.503 76.7529 310.2 75.5575 310.057 74.2235C309.979 72.834 309.999 71.3314 310.118 69.7158L313.4 25.0161Z" fill="#FD9792"/>
<path d="M363.239 86.8038L377.348 43.8832L382.563 45.5976C384.9 46.3658 386.603 47.4307 387.671 48.7924C388.815 50.1158 389.439 51.7734 389.542 53.7652C389.721 55.7188 389.493 58.044 388.859 60.741C388.225 63.4379 387.337 66.5248 386.194 70.0018C384.826 74.1628 383.541 77.5929 382.338 80.2922C381.192 83.0102 379.939 85.0931 378.579 86.5407C377.275 88.0071 375.847 88.8954 374.292 89.2054C372.737 89.5155 370.877 89.3145 368.711 88.6025L363.239 86.8038ZM368.015 30.7732L347.948 91.8196L367.357 98.1994C371.461 99.5485 375.058 100.036 378.149 99.6629C381.241 99.2896 384.006 98.0827 386.445 96.0423C388.884 94.002 391.063 91.1184 392.983 87.3915C394.979 83.6264 396.857 79.0648 398.618 73.7069C400.099 69.2039 401.182 65.0442 401.868 61.2276C402.554 57.411 402.578 53.9766 401.939 50.9245C401.376 47.8341 400.008 45.174 397.836 42.9441C395.682 40.6572 392.468 38.8112 388.193 37.4059L368.015 30.7732Z" fill="#FD9792"/>
<path d="M401.258 111.09L412.536 117.475L444.196 61.5553L432.918 55.1702L401.258 111.09Z" fill="#FD9792"/>
<path d="M456.874 107.841C459.687 104.563 462.139 101.844 464.229 99.6838C466.364 97.5632 468.285 95.9696 469.99 94.903C471.741 93.8756 473.323 93.4142 474.735 93.519C476.232 93.6172 477.709 94.2915 479.166 95.5416C480.623 96.7918 481.492 98.1295 481.771 99.5549C482.135 100.974 481.919 102.607 481.124 104.455C480.375 106.342 479.092 108.483 477.275 110.877C475.504 113.31 473.212 116.166 470.399 119.445C467.586 122.723 465.093 125.446 462.918 127.612C460.828 129.772 458.908 131.365 457.156 132.393C455.49 133.414 453.908 133.875 452.412 133.777C450.999 133.672 449.565 132.995 448.107 131.744C446.65 130.494 445.74 129.16 445.376 127.741C445.097 126.316 445.312 124.682 446.022 122.841C446.817 120.993 448.1 118.852 449.871 116.419C451.727 113.979 454.062 111.12 456.874 107.841ZM447.038 99.4029C443.835 103.137 441.064 106.689 438.726 110.059C436.434 113.468 434.9 116.777 434.124 119.985C433.394 123.232 433.613 126.385 434.784 129.445C435.954 132.504 438.383 135.616 442.072 138.78C445.76 141.945 449.205 143.872 452.407 144.564C455.608 145.255 458.736 144.973 461.788 143.719C464.887 142.503 467.923 140.484 470.899 137.66C473.92 134.876 477.032 131.617 480.235 127.883C483.4 124.195 486.128 120.646 488.421 117.237C490.798 113.821 492.351 110.49 493.081 107.242C493.857 104.034 493.68 100.878 492.549 97.7732C491.457 94.6229 489.067 91.4655 485.378 88.3011C481.689 85.1366 478.205 83.2543 474.925 82.6541C471.685 82.0084 468.515 82.2933 465.417 83.5089C462.364 84.7636 459.308 86.8057 456.248 89.6353C453.273 92.4584 450.203 95.7143 447.038 99.4029Z" fill="#FD9792"/>
</svg>
