<svg width="606" height="606" viewBox="0 0 606 606" fill="none" xmlns="http://www.w3.org/2000/svg">
<path d="M574.136 327.082L572.625 337.614L512.959 351.278L514.482 340.667L530.21 337.509L533.448 314.94L519.242 307.487L520.708 297.271L574.136 327.082ZM540.585 318.712L538.107 335.975L563.634 330.99L563.668 330.753L540.585 318.712Z" fill="#FD9792"/>
<path d="M511.49 447.018C513.106 447.569 514.699 447.913 516.268 448.051C517.836 448.188 519.366 448.045 520.858 447.621C522.349 447.197 523.757 446.463 525.081 445.418C526.421 444.448 527.662 443.093 528.804 441.355C530.473 438.814 531.41 436.271 531.615 433.726C531.791 431.225 531.39 428.823 530.413 426.522C529.481 424.251 528.113 422.107 526.31 420.093C524.477 418.123 522.424 416.391 520.151 414.898C517.878 413.404 515.474 412.207 512.938 411.307C510.373 410.451 507.841 410.032 505.341 410.048C502.886 410.094 500.545 410.694 498.32 411.848C496.064 413.046 494.102 414.916 492.433 417.457C491.203 419.329 490.431 421.183 490.118 423.019C489.849 424.885 489.935 426.696 490.376 428.454C490.861 430.24 491.671 431.921 492.806 433.496C493.941 435.072 495.319 436.519 496.94 437.84L491.58 445.997C488.845 443.944 486.647 441.607 484.988 438.985C483.299 436.407 482.171 433.656 481.604 430.731C481.082 427.835 481.144 424.876 481.789 421.854C482.435 418.832 483.709 415.873 485.613 412.976C487.956 409.41 490.711 406.625 493.878 404.622C497.06 402.693 500.432 401.494 503.994 401.027C507.556 400.559 511.204 400.786 514.938 401.708C518.642 402.674 522.21 404.285 525.643 406.54C529.03 408.766 531.902 411.387 534.26 414.404C536.588 417.465 538.244 420.723 539.229 424.178C540.213 427.633 540.452 431.204 539.944 434.89C539.406 438.622 537.966 442.27 535.623 445.836C533.866 448.51 531.832 450.78 529.522 452.644C527.257 454.538 524.826 455.908 522.228 456.753C519.645 457.673 516.985 458.031 514.247 457.827C511.509 457.624 508.76 456.806 505.999 455.375L511.49 447.018Z" fill="#FD9792"/>
<path d="M498.566 491.47L491.317 498.359L451.967 456.955L459.216 450.066L498.566 491.47Z" fill="#FD9792"/>
<path d="M467.729 520.783L444.242 534.658C438.823 537.859 434.068 539.089 429.975 538.347C425.882 537.606 422.602 535.146 420.133 530.967C418.75 528.625 417.941 526.47 417.708 524.502C417.501 522.58 417.572 520.865 417.921 519.358C418.297 517.897 418.822 516.689 419.496 515.733C420.125 514.805 420.605 514.149 420.937 513.767L420.855 513.63C420.066 513.972 419.15 514.203 418.106 514.324C417.017 514.472 415.861 514.35 414.638 513.958C413.442 513.611 412.235 512.93 411.016 511.916C409.751 510.929 408.549 509.471 407.41 507.542C405.701 504.649 403.935 502.131 402.111 499.987C400.268 497.916 398.589 496.647 397.074 496.18L406.304 490.727C407.571 491.404 408.653 492.344 409.55 493.548C410.401 494.78 411.18 495.992 411.885 497.186C413.214 499.436 414.491 501.284 415.716 502.728C416.968 504.218 418.274 505.275 419.632 505.897C421.018 506.565 422.503 506.772 424.087 506.517C425.625 506.29 427.382 505.593 429.356 504.427L442.03 496.94L430.067 476.689L438.677 471.603L467.729 520.783ZM445.895 503.483L431.775 511.825C429.02 513.452 427.31 515.329 426.646 517.456C426.01 519.629 426.464 522.024 428.011 524.641C428.933 526.202 429.908 527.329 430.937 528.022C431.993 528.761 433.097 529.162 434.249 529.225C435.356 529.315 436.491 529.14 437.656 528.7C438.774 528.286 439.885 527.754 440.987 527.103L454.969 518.843L445.895 503.483Z" fill="#FD9792"/>
<path d="M353.165 551.177C353.953 552.692 354.866 554.041 355.905 555.224C356.944 556.408 358.149 557.362 359.52 558.085C360.891 558.809 362.416 559.251 364.095 559.411C365.734 559.635 367.567 559.514 369.594 559.046C372.556 558.363 374.991 557.173 376.898 555.474C378.753 553.787 380.122 551.775 381.006 549.436C381.902 547.15 382.394 544.656 382.483 541.953C382.519 539.263 382.232 536.593 381.62 533.942C381.009 531.292 380.098 528.765 378.887 526.362C377.625 523.972 376.084 521.919 374.265 520.203C372.459 518.54 370.352 517.357 367.946 516.653C365.488 515.961 362.777 515.956 359.815 516.639C357.632 517.143 355.793 517.95 354.298 519.061C352.815 520.224 351.625 521.593 350.73 523.168C349.846 524.794 349.27 526.569 349.002 528.492C348.734 530.415 348.729 532.414 348.989 534.488L339.478 536.681C338.919 533.307 338.946 530.099 339.558 527.057C340.118 524.027 341.204 521.259 342.815 518.753C344.439 516.299 346.528 514.203 349.082 512.464C351.637 510.726 354.604 509.467 357.982 508.688C362.139 507.729 366.055 507.62 369.728 508.36C373.362 509.164 376.628 510.628 379.525 512.751C382.423 514.874 384.903 517.559 386.965 520.805C388.976 524.064 390.442 527.694 391.365 531.695C392.276 535.645 392.541 539.525 392.16 543.334C391.728 547.156 390.674 550.655 388.998 553.833C387.323 557.011 385.028 559.757 382.113 562.071C379.147 564.397 375.585 566.039 371.427 566.998C368.309 567.717 365.271 567.952 362.313 567.704C359.367 567.507 356.662 566.817 354.2 565.634C351.698 564.514 349.528 562.935 347.689 560.896C345.851 558.856 344.428 556.366 343.421 553.423L353.165 551.177Z" fill="#FD9792"/>
<path d="M310.576 576.004L300.616 575.118L303.564 541.969C303.734 540.056 303.826 538.11 303.842 536.131C303.804 534.146 303.431 532.319 302.723 530.65C301.957 529.029 300.742 527.636 299.079 526.471C297.362 525.301 294.884 524.572 291.643 524.283C288.403 523.995 285.861 524.278 284.018 525.131C282.122 525.98 280.681 527.137 279.694 528.602C278.649 530.115 277.959 531.848 277.625 533.799C277.238 535.746 276.959 537.675 276.789 539.588L273.841 572.737L263.88 571.851L267.119 535.435C267.445 531.769 268.286 528.631 269.643 526.021C270.999 523.411 272.796 521.269 275.034 519.594C277.213 517.967 279.777 516.83 282.726 516.182C285.675 515.534 288.903 515.366 292.409 515.677C295.915 515.989 299.062 516.724 301.851 517.882C304.639 519.041 306.989 520.615 308.9 522.605C310.753 524.644 312.117 527.068 312.992 529.876C313.866 532.685 314.141 535.922 313.815 539.588L310.576 576.004Z" fill="#FD9792"/>
<path d="M226.213 564.532L216.918 560.844L234.797 515.782L207.804 505.072L210.99 497.041L247.279 511.439L226.213 564.532Z" fill="#FD9792"/>
<path d="M149.268 527.211L140.803 520.765L157.904 461.992L166.433 468.486L161.538 483.763L179.677 497.576L193.102 488.793L201.312 495.045L149.268 527.211ZM172.909 501.974L159.034 491.409L150.965 516.135L151.156 516.28L172.909 501.974Z" fill="#FD9792"/>
<path d="M100.233 486.371L84.2662 464.251C80.5828 459.149 78.9229 454.525 79.2867 450.382C79.6504 446.239 81.7998 442.747 85.735 439.906C87.9405 438.314 90.0125 437.312 91.951 436.899C93.8463 436.518 95.5601 436.432 97.0926 436.641C98.5817 436.882 99.8331 437.294 100.847 437.878C101.829 438.418 102.525 438.837 102.936 439.132L103.066 439.038C102.653 438.284 102.338 437.393 102.122 436.365C101.875 435.293 101.891 434.131 102.17 432.877C102.406 431.654 102.973 430.39 103.872 429.083C104.739 427.734 106.081 426.403 107.897 425.092C110.622 423.126 112.968 421.136 114.935 419.124C116.829 417.099 117.939 415.311 118.266 413.76L124.54 422.452C123.983 423.775 123.145 424.939 122.028 425.942C120.88 426.903 119.743 427.789 118.619 428.601C116.5 430.13 114.777 431.571 113.451 432.923C112.082 434.306 111.149 435.703 110.654 437.113C110.116 438.554 110.046 440.051 110.444 441.606C110.811 443.117 111.666 444.802 113.008 446.661L121.624 458.597L140.694 444.831L146.547 452.939L100.233 486.371ZM115.461 463.045L105.863 449.747C103.99 447.153 101.964 445.622 99.7855 445.156C97.5638 444.72 95.2204 445.392 92.7555 447.172C91.2853 448.233 90.2521 449.307 89.6562 450.395C89.0169 451.515 88.7188 452.651 88.7618 453.804C88.7735 454.913 89.0519 456.028 89.5968 457.147C90.1106 458.224 90.7421 459.281 91.4913 460.319L100.996 473.486L115.461 463.045Z" fill="#FD9792"/>
<path d="M40.7039 382.121L36.5344 358.811C35.7644 354.506 35.8326 350.647 36.7392 347.234C37.6457 343.821 39.2069 340.887 41.4225 338.432C43.5857 335.986 46.289 333.986 49.5324 332.43C52.7665 330.823 56.3261 329.671 60.2111 328.976C64.0961 328.281 67.834 328.127 71.425 328.514C75.0065 328.849 78.262 329.784 81.1913 331.319C84.0682 332.863 86.5233 335.079 88.5568 337.966C90.5902 340.853 91.992 344.449 92.762 348.754L96.9315 372.064L40.7039 382.121ZM87.1382 363.657L85.4056 353.971C84.7201 350.138 83.6626 347.103 82.2331 344.867C80.7418 342.587 78.9815 340.924 76.9523 339.879C74.8613 338.79 72.566 338.225 70.0665 338.185C67.5051 338.101 64.8069 338.313 61.9718 338.82C59.1368 339.327 56.5588 340.059 54.2377 341.016C51.8547 341.93 49.8975 343.255 48.366 344.992C46.7727 346.686 45.698 348.856 45.1418 351.501C44.5238 354.104 44.5575 357.322 45.2431 361.154L46.9757 370.841L87.1382 363.657Z" fill="#FD9792"/>
<path d="M29.3988 297.034L34.2999 256.207L42.8783 257.237L39.1691 288.135L54.0225 289.918L57.4551 261.323L65.557 262.296L62.1243 290.891L78.7251 292.884L82.501 261.429L91.0795 262.459L86.1116 303.842L29.3988 297.034Z" fill="#FD9792"/>
<path d="M78.4479 231.838C80.4618 232.69 82.3265 233.074 84.0418 232.988C85.7572 232.903 87.3412 232.444 88.7939 231.611C90.1975 230.757 91.4527 229.637 92.5596 228.252C93.6382 226.798 94.5722 225.137 95.3617 223.27C96.2135 221.256 96.7197 219.444 96.8801 217.832C96.9914 216.2 96.8656 214.786 96.5028 213.59C96.14 212.394 95.575 211.403 94.8079 210.615C93.9917 209.806 93.0924 209.194 92.11 208.779C90.0961 207.927 88.4251 207.77 87.0971 208.309C85.7407 208.778 84.6375 209.469 83.7875 210.384C82.3103 211.959 80.7472 213.875 79.0982 216.131C77.4208 218.317 75.3222 221.019 72.8024 224.239C71.2572 226.249 69.696 227.818 68.1186 228.946C66.5129 230.004 64.9337 230.726 63.3808 231.112C61.828 231.497 60.3053 231.606 58.8129 231.438C57.3412 231.221 55.9176 230.821 54.5423 230.24C51.8898 229.118 49.8342 227.611 48.3756 225.72C46.8887 223.76 45.891 221.6 45.3826 219.243C44.8742 216.885 44.8135 214.427 45.2005 211.869C45.5384 209.291 46.206 206.822 47.2033 204.465C48.3667 201.714 49.8259 199.291 51.5807 197.196C53.3072 195.03 55.267 193.34 57.4602 192.125C59.6742 190.861 62.0658 190.136 64.6351 189.948C67.1552 189.74 69.7906 190.218 72.5414 191.382L68.6458 200.592C65.1527 199.404 62.2821 199.55 60.0341 201.032C57.737 202.492 55.9133 204.819 54.5628 208.012C54.1058 209.092 53.7611 210.25 53.5288 211.483C53.2475 212.696 53.1796 213.883 53.3252 215.045C53.4216 216.186 53.7769 217.263 54.391 218.276C55.0258 219.239 56.0064 220.001 57.3326 220.562C59.1992 221.352 60.9117 221.41 62.4702 220.737C64.0003 219.995 65.4303 218.804 66.7601 217.166C66.8924 216.991 67.4354 216.323 68.3894 215.163C69.3149 213.933 70.3519 212.576 71.5004 211.093C72.6489 209.61 73.7766 208.176 74.8835 206.791C75.9621 205.337 76.745 204.307 77.2324 203.702C78.4999 202.212 79.8703 201.025 81.3438 200.143C82.8173 199.26 84.3446 198.661 85.9258 198.346C87.4787 197.96 89.0259 197.862 90.5674 198.051C92.1298 198.19 93.5987 198.551 94.974 199.133C97.9212 200.379 100.191 202.063 101.784 204.184C103.348 206.236 104.378 208.525 104.873 211.05C105.369 213.576 105.381 216.216 104.911 218.971C104.49 221.746 103.729 224.435 102.628 227.039C101.36 230.035 99.7974 232.704 97.9387 235.044C96.08 237.385 93.9738 239.216 91.62 240.537C89.2662 241.858 86.6611 242.609 83.8047 242.79C80.8992 242.951 77.8151 242.371 74.5524 241.048L78.4479 231.838Z" fill="#FD9792"/>
<path d="M73.9565 154.517L79.75 146.366L126.307 179.458L120.514 187.609L73.9565 154.517Z" fill="#FD9792"/>
<path d="M172.651 130.424L167.839 134.644L162.265 130.594C162.265 134.638 161.649 137.98 160.418 140.621C159.187 143.261 157.268 145.724 154.662 148.01C151.454 150.823 148.057 152.774 144.471 153.862C140.89 154.874 137.321 155.132 133.763 154.634C130.205 154.136 126.749 152.946 123.396 151.064C120.082 149.146 117.072 146.643 114.364 143.556C111.691 140.509 109.62 137.217 108.151 133.682C106.722 130.111 105.993 126.53 105.964 122.937C105.935 119.345 106.656 115.84 108.127 112.421C109.638 108.968 111.997 105.834 115.205 103.021C117.531 100.981 120.017 99.3681 122.665 98.181C125.318 96.9186 128.011 96.1881 130.745 95.9892C133.444 95.7503 136.144 96.0784 138.844 96.9733C141.544 97.8683 144.09 99.3956 146.481 101.555L139.143 107.991C137.712 106.763 136.198 105.927 134.602 105.482C133.011 104.962 131.398 104.781 129.762 104.939C128.127 105.096 126.529 105.539 124.97 106.269C123.41 106.998 121.949 107.96 120.586 109.156C118.3 111.16 116.72 113.362 115.844 115.762C115.009 118.126 114.756 120.547 115.085 123.025C115.379 125.463 116.127 127.893 117.329 130.315C118.571 132.701 120.088 134.917 121.882 136.962C123.675 139.007 125.674 140.801 127.879 142.344C130.123 143.851 132.452 144.93 134.866 145.579C137.245 146.189 139.661 146.234 142.114 145.714C144.607 145.159 146.996 143.88 149.281 141.875C151.241 140.227 152.734 138.492 153.761 136.67C154.752 134.807 155.309 132.935 155.433 131.054C155.561 129.097 155.235 127.148 154.455 125.207C153.675 123.266 152.514 121.376 150.972 119.537L139.544 129.559L134.533 123.845L152.817 107.809L172.651 130.424Z" fill="#FD9792"/>
<path d="M166.235 64.4638L175.961 60.3502L216.373 88.9465L216.521 88.8842L200.128 50.1283L208.896 46.4198L231.148 99.0276L221.422 103.141L181.115 74.5874L180.893 74.6809L197.255 113.363L188.487 117.072L166.235 64.4638Z" fill="#FD9792"/>
<path d="M290.487 67.4361C290.394 69.6208 290.688 71.5016 291.368 73.0786C292.049 74.6555 293.034 75.9785 294.323 77.0475C295.614 78.0632 297.102 78.8471 298.787 79.3991C300.527 79.9001 302.41 80.1936 304.435 80.2796C306.619 80.3724 308.495 80.2118 310.06 79.7979C311.628 79.3307 312.909 78.7178 313.902 77.9592C314.895 77.2007 315.626 76.3243 316.095 75.33C316.567 74.2824 316.825 73.2257 316.87 72.16C316.963 69.9753 316.525 68.3552 315.556 67.2998C314.642 66.1934 313.608 65.4021 312.453 64.926C310.46 64.094 308.119 63.3006 305.428 62.5458C302.793 61.7399 299.527 60.7203 295.629 59.4871C293.205 58.7436 291.189 57.8305 289.58 56.748C288.027 55.6144 286.798 54.3878 285.893 53.0682C284.988 51.7486 284.353 50.3604 283.988 48.9036C283.676 47.449 283.552 45.9758 283.615 44.4838C283.737 41.6064 284.429 39.1535 285.689 37.1252C287.005 35.0458 288.679 33.3553 290.709 32.0536C292.739 30.752 295.02 29.8346 297.552 29.3015C300.086 28.7152 302.631 28.4764 305.189 28.585C308.173 28.7118 310.954 29.2302 313.531 30.1404C316.163 30.9996 318.432 32.2437 320.338 33.8727C322.298 35.504 323.815 37.4901 324.89 39.8312C325.967 42.119 326.442 44.7548 326.315 47.7388L316.324 47.3144C316.214 43.6264 315.072 40.9889 312.897 39.4019C310.725 37.7615 307.907 36.8678 304.443 36.7207C303.271 36.6709 302.066 36.7532 300.829 36.9676C299.595 37.1286 298.459 37.4807 297.422 38.0239C296.387 38.5137 295.502 39.2235 294.769 40.1532C294.089 41.0852 293.718 42.2705 293.657 43.7092C293.571 45.7341 294.116 47.3587 295.292 48.583C296.523 49.7563 298.139 50.679 300.138 51.3512C300.349 51.4135 301.165 51.6884 302.586 52.1758C304.062 52.6122 305.696 53.1086 307.487 53.6651C309.278 54.2216 311.016 54.7759 312.701 55.3279C314.441 55.8289 315.68 56.2018 316.417 56.4466C318.257 57.112 319.848 57.9803 321.191 59.0515C322.533 60.1228 323.629 61.3437 324.478 62.7143C325.383 64.0339 326.017 65.4488 326.38 66.9589C326.796 68.4712 326.972 69.9734 326.909 71.4654C326.773 74.6625 325.991 77.3784 324.561 79.6131C323.187 81.7968 321.404 83.5627 319.211 84.9108C317.019 86.259 314.55 87.1951 311.806 87.7191C309.059 88.2964 306.273 88.525 303.449 88.4051C300.199 88.267 297.152 87.7372 294.308 86.8157C291.465 85.8942 289.012 84.5623 286.951 82.8199C284.89 81.0775 283.274 78.9003 282.104 76.2883C280.936 73.623 280.4 70.5308 280.496 67.0117L290.487 67.4361Z" fill="#FD9792"/>
<path d="M356.976 33.503L400.904 47.9427L398.206 56.1506L380.954 50.4797L365.815 96.5353L356.315 93.4125L371.454 47.3569L354.278 41.711L356.976 33.503Z" fill="#FD9792"/>
<path d="M430.286 59.4135L438.5 65.1173L419.518 92.453C418.423 94.03 417.378 95.6746 416.384 97.3868C415.434 99.1293 414.853 100.901 414.641 102.702C414.503 104.49 414.869 106.301 415.736 108.138C416.648 110.004 418.44 111.865 421.112 113.721C423.784 115.577 426.132 116.59 428.156 116.762C430.223 116.964 432.048 116.673 433.631 115.889C435.289 115.092 436.746 113.929 438.003 112.399C439.304 110.9 440.501 109.362 441.597 107.785L460.579 80.449L468.792 86.1527L447.94 116.183C445.841 119.205 443.555 121.514 441.084 123.11C438.613 124.705 435.99 125.676 433.217 126.023C430.518 126.356 427.727 126.074 424.845 125.176C421.962 124.278 419.075 122.825 416.184 120.818C413.292 118.81 410.923 116.612 409.074 114.225C407.226 111.838 405.964 109.306 405.29 106.63C404.69 103.941 404.706 101.16 405.337 98.2869C405.969 95.4139 407.334 92.4661 409.433 89.4434L430.286 59.4135Z" fill="#FD9792"/>
<path d="M499.745 111.658L514.091 130.498C516.741 133.978 518.441 137.443 519.191 140.893C519.942 144.344 519.891 147.667 519.04 150.863C518.231 154.026 516.738 157.04 514.562 159.904C512.417 162.81 509.775 165.459 506.635 167.85C503.495 170.241 500.239 172.083 496.867 173.377C493.528 174.713 490.204 175.367 486.897 175.338C483.633 175.276 480.437 174.425 477.31 172.784C474.184 171.142 471.296 168.582 468.646 165.103L454.3 146.263L499.745 111.658ZM466.851 149.275L472.812 157.104C475.171 160.202 477.496 162.419 479.789 163.757C482.156 165.105 484.481 165.782 486.764 165.787C489.121 165.801 491.421 165.257 493.664 164.152C495.981 163.058 498.286 161.638 500.577 159.894C502.868 158.149 504.828 156.321 506.457 154.411C508.161 152.51 509.298 150.438 509.868 148.194C510.513 145.96 510.479 143.538 509.767 140.93C509.129 138.332 507.631 135.484 505.273 132.387L499.311 124.558L466.851 149.275Z" fill="#FD9792"/>
<path d="M546.055 179.524L550.156 188.644L498.059 212.067L493.959 202.947L546.055 179.524Z" fill="#FD9792"/>
<path d="M561.772 243.512C561.214 240.523 560.126 238.041 558.509 236.064C556.902 234.14 554.948 232.687 552.649 231.706C550.402 230.715 547.931 230.118 545.235 229.917C542.548 229.767 539.868 229.942 537.194 230.442C534.521 230.941 531.958 231.745 529.507 232.854C527.065 234.016 524.949 235.469 523.159 237.214C521.421 238.949 520.15 241.004 519.346 243.379C518.552 245.806 518.433 248.514 518.992 251.502C519.55 254.49 520.632 256.947 522.24 258.871C523.857 260.848 525.789 262.331 528.036 263.322C530.335 264.304 532.828 264.869 535.514 265.018C538.21 265.22 540.895 265.071 543.569 264.572C546.243 264.072 548.8 263.242 551.242 262.08C553.693 260.972 555.788 259.549 557.526 257.814C559.316 256.069 560.608 253.983 561.402 251.556C562.207 249.181 562.33 246.5 561.772 243.512ZM569.793 242.013C570.576 246.207 570.49 250.103 569.534 253.7C568.588 257.349 566.994 260.576 564.751 263.382C562.508 266.189 559.716 268.527 556.377 270.399C553.047 272.323 549.389 273.657 545.405 274.402C541.368 275.156 537.45 275.236 533.65 274.644C529.859 274.104 526.412 272.93 523.307 271.123C520.203 269.316 517.551 266.881 515.351 263.82C513.214 260.801 511.754 257.194 510.97 253C510.187 248.806 510.242 244.889 511.136 241.25C512.092 237.653 513.691 234.452 515.934 231.646C518.177 228.84 520.963 226.474 524.293 224.55C527.633 222.679 531.321 221.366 535.358 220.612C539.343 219.868 543.23 219.766 547.02 220.305C550.82 220.898 554.273 222.098 557.377 223.905C560.482 225.712 563.129 228.121 565.319 231.13C567.518 234.191 569.01 237.819 569.793 242.013Z" fill="#FD9792"/>
</svg>
