<svg width="588" height="59" viewBox="0 0 588 59" fill="none" xmlns="http://www.w3.org/2000/svg">
<path d="M164.593 27.4929L161.898 14.9546H161.82L159.124 27.4929H164.593ZM165.335 10.1112L172.717 38H166.858L165.569 32.1019H158.148L156.859 38H151L158.382 10.1112H165.335ZM195.954 19.5246H201.579C201.579 18.5091 201.501 17.4284 201.344 16.2826C201.214 15.1108 200.863 14.0302 200.29 13.0407C199.717 12.0251 198.845 11.1918 197.673 10.5408C196.527 9.88982 194.952 9.56432 192.946 9.56432C190.837 9.56432 189.158 9.92888 187.908 10.658C186.658 11.3611 185.694 12.3506 185.017 13.6266C184.366 14.9025 183.937 16.4389 183.728 18.2356C183.546 20.0064 183.455 21.9463 183.455 24.0556C183.455 26.1909 183.546 28.1439 183.728 29.9146C183.937 31.6853 184.366 33.2086 185.017 34.4846C185.694 35.7606 186.658 36.7371 187.908 37.4141C189.158 38.0911 190.837 38.4297 192.946 38.4297C194.795 38.4297 196.293 38.1432 197.438 37.5703C198.61 36.9975 199.509 36.2032 200.134 35.1877C200.785 34.1721 201.227 32.9873 201.462 31.6332C201.696 30.2791 201.813 28.8469 201.813 27.3366H196.188C196.188 28.8469 196.097 30.0708 195.915 31.0083C195.733 31.9197 195.485 32.6358 195.173 33.1566C194.86 33.6513 194.483 33.9898 194.04 34.1721C193.624 34.3284 193.168 34.4065 192.673 34.4065C192.074 34.4065 191.54 34.2893 191.072 34.0549C190.629 33.7945 190.251 33.3128 189.939 32.6097C189.652 31.8806 189.431 30.865 189.275 29.563C189.145 28.261 189.08 26.5554 189.08 24.4462C189.08 22.4671 189.132 20.8006 189.236 19.4465C189.34 18.0664 189.522 16.9597 189.783 16.1264C190.043 15.2671 190.395 14.6551 190.837 14.2906C191.306 13.9 191.892 13.7047 192.595 13.7047C193.871 13.7047 194.743 14.1734 195.212 15.1108C195.707 16.0222 195.954 17.4935 195.954 19.5246ZM205.294 38H210.918V10.1112H205.294V38ZM215.09 10.1112V38H220.715V26.2039H223.723C224.895 26.2039 225.728 26.5164 226.223 27.1413C226.717 27.7663 226.991 28.6256 227.043 29.7193L227.199 35.0705C227.225 35.6173 227.277 36.1512 227.355 36.672C227.433 37.1667 227.616 37.6094 227.902 38H233.995V37.7656C233.475 37.4792 233.136 36.9454 232.98 36.1642C232.876 35.383 232.798 34.2502 232.746 32.766C232.72 32.0108 232.693 31.3338 232.667 30.7348C232.641 30.1099 232.602 29.537 232.55 29.0162C232.394 27.4538 231.99 26.3211 231.339 25.618C230.688 24.9149 229.66 24.4592 228.254 24.2509V24.1728C229.842 23.8342 231.014 23.0791 231.769 21.9073C232.524 20.7094 232.902 19.1731 232.902 17.2982C232.902 14.8765 232.251 13.0797 230.949 11.9079C229.647 10.7101 227.824 10.1112 225.48 10.1112H215.09ZM220.715 22.2979V14.2515H223.371C225.975 14.2515 227.277 15.5405 227.277 18.1185C227.277 19.6288 226.913 20.7094 226.183 21.3604C225.454 21.9854 224.413 22.2979 223.059 22.2979H220.715ZM248.708 19.5246H254.333C254.333 18.5091 254.255 17.4284 254.098 16.2826C253.968 15.1108 253.617 14.0302 253.044 13.0407C252.471 12.0251 251.598 11.1918 250.427 10.5408C249.281 9.88982 247.705 9.56432 245.7 9.56432C243.591 9.56432 241.912 9.92888 240.662 10.658C239.412 11.3611 238.448 12.3506 237.771 13.6266C237.12 14.9025 236.691 16.4389 236.482 18.2356C236.3 20.0064 236.209 21.9463 236.209 24.0556C236.209 26.1909 236.3 28.1439 236.482 29.9146C236.691 31.6853 237.12 33.2086 237.771 34.4846C238.448 35.7606 239.412 36.7371 240.662 37.4141C241.912 38.0911 243.591 38.4297 245.7 38.4297C247.549 38.4297 249.047 38.1432 250.192 37.5703C251.364 36.9975 252.262 36.2032 252.887 35.1877C253.538 34.1721 253.981 32.9873 254.215 31.6332C254.45 30.2791 254.567 28.8469 254.567 27.3366H248.942C248.942 28.8469 248.851 30.0708 248.669 31.0083C248.487 31.9197 248.239 32.6358 247.927 33.1566C247.614 33.6513 247.237 33.9898 246.794 34.1721C246.377 34.3284 245.922 34.4065 245.427 34.4065C244.828 34.4065 244.294 34.2893 243.825 34.0549C243.383 33.7945 243.005 33.3128 242.693 32.6097C242.406 31.8806 242.185 30.865 242.029 29.563C241.899 28.261 241.833 26.5554 241.833 24.4462C241.833 22.4671 241.886 20.8006 241.99 19.4465C242.094 18.0664 242.276 16.9597 242.537 16.1264C242.797 15.2671 243.148 14.6551 243.591 14.2906C244.06 13.9 244.646 13.7047 245.349 13.7047C246.625 13.7047 247.497 14.1734 247.966 15.1108C248.461 16.0222 248.708 17.4935 248.708 19.5246ZM263.047 10.1112H257.423V29.563C257.423 31.4379 257.67 32.9613 258.165 34.1331C258.66 35.3049 259.324 36.2163 260.157 36.8673C260.99 37.4922 261.941 37.9089 263.008 38.1172C264.076 38.3255 265.183 38.4297 266.328 38.4297C267.474 38.4297 268.581 38.3125 269.648 38.0781C270.716 37.8438 271.667 37.3881 272.5 36.711C273.333 36.034 273.997 35.1226 274.492 33.9768C274.987 32.805 275.234 31.3338 275.234 29.563V10.1112H269.609V29.563C269.609 30.2661 269.557 30.9171 269.453 31.516C269.375 32.0889 269.206 32.5967 268.945 33.0394C268.711 33.456 268.385 33.7945 267.969 34.0549C267.552 34.2893 267.005 34.4065 266.328 34.4065C265.677 34.4065 265.13 34.2893 264.688 34.0549C264.271 33.7945 263.933 33.456 263.672 33.0394C263.438 32.5967 263.269 32.0889 263.164 31.516C263.086 30.9171 263.047 30.2661 263.047 29.563V10.1112ZM278.792 38H294.377V33.3909H284.416V10.1112H278.792V38ZM308.512 27.4929L305.817 14.9546H305.739L303.044 27.4929H308.512ZM309.254 10.1112L316.637 38H310.778L309.489 32.1019H302.067L300.778 38H294.919L302.302 10.1112H309.254ZM318.577 10.1112V38H324.201V26.2039H327.209C328.381 26.2039 329.214 26.5164 329.709 27.1413C330.203 27.7663 330.477 28.6256 330.529 29.7193L330.685 35.0705C330.711 35.6173 330.763 36.1512 330.841 36.672C330.92 37.1667 331.102 37.6094 331.388 38H337.482V37.7656C336.961 37.4792 336.622 36.9454 336.466 36.1642C336.362 35.383 336.284 34.2502 336.232 32.766C336.206 32.0108 336.18 31.3338 336.154 30.7348C336.128 30.1099 336.088 29.537 336.036 29.0162C335.88 27.4538 335.477 26.3211 334.826 25.618C334.175 24.9149 333.146 24.4592 331.74 24.2509V24.1728C333.328 23.8342 334.5 23.0791 335.255 21.9073C336.01 20.7094 336.388 19.1731 336.388 17.2982C336.388 14.8765 335.737 13.0797 334.435 11.9079C333.133 10.7101 331.31 10.1112 328.967 10.1112H318.577ZM324.201 22.2979V14.2515H326.857C329.461 14.2515 330.763 15.5405 330.763 18.1185C330.763 19.6288 330.399 20.7094 329.67 21.3604C328.94 21.9854 327.899 22.2979 326.545 22.2979H324.201ZM355.562 33.8596V14.2515H357.945C359.013 14.2515 359.859 14.4598 360.484 14.8765C361.135 15.2671 361.617 15.866 361.929 16.6732C362.268 17.4544 362.489 18.444 362.593 19.6418C362.697 20.8396 362.749 22.2328 362.749 23.8212C362.749 25.7221 362.684 27.3106 362.554 28.5865C362.45 29.8625 362.216 30.8911 361.851 31.6723C361.513 32.4535 361.044 33.0133 360.445 33.3519C359.846 33.6904 359.052 33.8596 358.062 33.8596H355.562ZM349.938 10.1112V38H358.804C360.679 38 362.229 37.7136 363.453 37.1407C364.676 36.5678 365.653 35.6955 366.382 34.5237C367.111 33.3519 367.619 31.8676 367.905 30.0708C368.218 28.248 368.374 26.1127 368.374 23.665C368.374 21.6078 368.257 19.746 368.023 18.0794C367.788 16.4128 367.332 14.9937 366.655 13.8219C366.004 12.624 365.08 11.7126 363.882 11.0877C362.684 10.4367 361.109 10.1112 359.156 10.1112H349.938ZM387.678 10.1112H372.093V38H388.069V33.3909H377.718V25.8914H387.092V21.2823H377.718V14.7202H387.678V10.1112ZM395.43 29.2896H389.805V30.4224C389.805 33.0003 390.482 34.9794 391.836 36.3595C393.216 37.7396 395.495 38.4297 398.672 38.4297C401.718 38.4297 404.088 37.7656 405.78 36.4376C407.499 35.0835 408.358 32.9352 408.358 29.9927C408.358 29.1334 408.28 28.3522 408.124 27.6491C407.968 26.946 407.681 26.308 407.265 25.7352C406.874 25.1362 406.34 24.5894 405.663 24.0946C404.986 23.5738 404.114 23.0791 403.046 22.6104L398.711 20.7355C397.513 20.2407 396.732 19.7069 396.367 19.134C396.002 18.5351 395.82 17.806 395.82 16.9467C395.82 16.53 395.859 16.1264 395.937 15.7358C396.041 15.3452 396.211 15.0067 396.445 14.7202C396.706 14.4078 397.044 14.1604 397.461 13.9781C397.877 13.7958 398.398 13.7047 399.023 13.7047C400.117 13.7047 400.898 14.0692 401.367 14.7984C401.835 15.5014 402.07 16.517 402.07 17.845H407.46V17.0638C407.46 15.7358 407.239 14.6031 406.796 13.6656C406.379 12.7021 405.78 11.9209 404.999 11.322C404.244 10.6971 403.333 10.2544 402.265 9.99398C401.223 9.70754 400.078 9.56432 398.828 9.56432C396.146 9.56432 394.036 10.2414 392.5 11.5954C390.964 12.9495 390.196 15.0067 390.196 17.7669C390.196 18.9127 390.339 19.9282 390.625 20.8136C390.912 21.6729 391.354 22.4411 391.953 23.1181C392.578 23.7691 393.346 24.342 394.258 24.8368C395.169 25.3315 396.25 25.7872 397.5 26.2039C398.437 26.5164 399.218 26.8288 399.843 27.1413C400.494 27.4278 401.015 27.7533 401.406 28.1178C401.796 28.4824 402.07 28.899 402.226 29.3677C402.408 29.8104 402.499 30.3442 402.499 30.9692C402.499 32.141 402.148 33.0133 401.445 33.5862C400.768 34.1331 400 34.4065 399.14 34.4065C398.411 34.4065 397.799 34.3023 397.304 34.094C396.836 33.8857 396.458 33.5992 396.172 33.2347C395.885 32.8701 395.69 32.4274 395.586 31.9066C395.482 31.3598 395.43 30.7609 395.43 30.1099V29.2896ZM411.427 38H417.051V10.1112H411.427V38ZM433.606 18.3919H438.996C438.996 15.5535 438.319 13.3792 436.965 11.8689C435.611 10.3325 433.397 9.56432 430.324 9.56432C428.528 9.56432 427.03 9.86378 425.833 10.4627C424.635 11.0616 423.671 11.96 422.942 13.1578C422.213 14.3296 421.692 15.8009 421.38 17.5716C421.093 19.3423 420.95 21.3995 420.95 23.7431C420.95 26.1648 421.054 28.3001 421.263 30.1489C421.471 31.9717 421.875 33.5081 422.473 34.758C423.098 36.0079 423.945 36.9324 425.012 37.5313C426.106 38.1302 427.512 38.4297 429.231 38.4297C430.559 38.4297 431.692 38.2083 432.629 37.7656C433.593 37.2969 434.413 36.5157 435.09 35.422H435.168V38H439.308V22.9619H430.207V27.1023H433.918V29.9536C433.918 30.7088 433.801 31.3728 433.566 31.9457C433.332 32.4925 433.033 32.9482 432.668 33.3128C432.33 33.6774 431.952 33.9508 431.535 34.1331C431.145 34.3153 430.78 34.4065 430.442 34.4065C429.634 34.4065 428.97 34.1591 428.45 33.6643C427.955 33.1435 427.564 32.4144 427.278 31.477C427.017 30.5135 426.835 29.3547 426.731 28.0006C426.627 26.6466 426.575 25.1362 426.575 23.4697C426.575 19.9803 426.874 17.4805 427.473 15.9702C428.072 14.4598 429.049 13.7047 430.403 13.7047C430.975 13.7047 431.457 13.8609 431.848 14.1734C432.264 14.4598 432.603 14.8374 432.863 15.3061C433.124 15.7488 433.306 16.2436 433.41 16.7904C433.54 17.3373 433.606 17.8711 433.606 18.3919ZM449.412 10.1112H442.928V38H448.084V18.47H448.162L455.036 38H461.442V10.1112H456.286V29.2115H456.208L449.412 10.1112ZM479.271 29.2896H473.647V30.4224C473.647 33.0003 474.324 34.9794 475.678 36.3595C477.058 37.7396 479.336 38.4297 482.513 38.4297C485.56 38.4297 487.93 37.7656 489.622 36.4376C491.341 35.0835 492.2 32.9352 492.2 29.9927C492.2 29.1334 492.122 28.3522 491.966 27.6491C491.81 26.946 491.523 26.308 491.106 25.7352C490.716 25.1362 490.182 24.5894 489.505 24.0946C488.828 23.5738 487.956 23.0791 486.888 22.6104L482.552 20.7355C481.354 20.2407 480.573 19.7069 480.209 19.134C479.844 18.5351 479.662 17.806 479.662 16.9467C479.662 16.53 479.701 16.1264 479.779 15.7358C479.883 15.3452 480.052 15.0067 480.287 14.7202C480.547 14.4078 480.886 14.1604 481.302 13.9781C481.719 13.7958 482.24 13.7047 482.865 13.7047C483.958 13.7047 484.74 14.0692 485.208 14.7984C485.677 15.5014 485.911 16.517 485.911 17.845H491.302V17.0638C491.302 15.7358 491.08 14.6031 490.638 13.6656C490.221 12.7021 489.622 11.9209 488.841 11.322C488.086 10.6971 487.174 10.2544 486.107 9.99398C485.065 9.70754 483.919 9.56432 482.669 9.56432C479.987 9.56432 477.878 10.2414 476.342 11.5954C474.805 12.9495 474.037 15.0067 474.037 17.7669C474.037 18.9127 474.18 19.9282 474.467 20.8136C474.753 21.6729 475.196 22.4411 475.795 23.1181C476.42 23.7691 477.188 24.342 478.099 24.8368C479.011 25.3315 480.092 25.7872 481.341 26.2039C482.279 26.5164 483.06 26.8288 483.685 27.1413C484.336 27.4278 484.857 27.7533 485.247 28.1178C485.638 28.4824 485.911 28.899 486.068 29.3677C486.25 29.8104 486.341 30.3442 486.341 30.9692C486.341 32.141 485.99 33.0133 485.286 33.5862C484.609 34.1331 483.841 34.4065 482.982 34.4065C482.253 34.4065 481.641 34.3023 481.146 34.094C480.677 33.8857 480.3 33.5992 480.013 33.2347C479.727 32.8701 479.532 32.4274 479.427 31.9066C479.323 31.3598 479.271 30.7609 479.271 30.1099V29.2896ZM511.322 10.1112H493.511V14.7202H499.604V38H505.229V14.7202H511.322V10.1112ZM519.035 10.1112H513.411V29.563C513.411 31.4379 513.658 32.9613 514.153 34.1331C514.648 35.3049 515.312 36.2163 516.145 36.8673C516.978 37.4922 517.929 37.9089 518.996 38.1172C520.064 38.3255 521.171 38.4297 522.316 38.4297C523.462 38.4297 524.569 38.3125 525.636 38.0781C526.704 37.8438 527.654 37.3881 528.488 36.711C529.321 36.034 529.985 35.1226 530.48 33.9768C530.975 32.805 531.222 31.3338 531.222 29.563V10.1112H525.597V29.563C525.597 30.2661 525.545 30.9171 525.441 31.516C525.363 32.0889 525.194 32.5967 524.933 33.0394C524.699 33.456 524.373 33.7945 523.957 34.0549C523.54 34.2893 522.993 34.4065 522.316 34.4065C521.665 34.4065 521.118 34.2893 520.676 34.0549C520.259 33.7945 519.921 33.456 519.66 33.0394C519.426 32.5967 519.257 32.0889 519.152 31.516C519.074 30.9171 519.035 30.2661 519.035 29.563V10.1112ZM540.678 33.8596V14.2515H543.061C544.128 14.2515 544.974 14.4598 545.599 14.8765C546.25 15.2671 546.732 15.866 547.045 16.6732C547.383 17.4544 547.604 18.444 547.709 19.6418C547.813 20.8396 547.865 22.2328 547.865 23.8212C547.865 25.7221 547.8 27.3106 547.67 28.5865C547.565 29.8625 547.331 30.8911 546.967 31.6723C546.628 32.4535 546.159 33.0133 545.56 33.3519C544.961 33.6904 544.167 33.8596 543.178 33.8596H540.678ZM535.053 10.1112V38H543.92C545.795 38 547.344 37.7136 548.568 37.1407C549.792 36.5678 550.768 35.6955 551.497 34.5237C552.227 33.3519 552.734 31.8676 553.021 30.0708C553.333 28.248 553.49 26.1127 553.49 23.665C553.49 21.6078 553.372 19.746 553.138 18.0794C552.904 16.4128 552.448 14.9937 551.771 13.8219C551.12 12.624 550.195 11.7126 548.998 11.0877C547.8 10.4367 546.224 10.1112 544.271 10.1112H535.053ZM557.482 38H563.107V10.1112H557.482V38ZM572.318 24.0556C572.318 22.1807 572.357 20.5923 572.435 19.2903C572.539 17.9883 572.721 16.9206 572.982 16.0873C573.268 15.2541 573.659 14.6551 574.153 14.2906C574.674 13.9 575.351 13.7047 576.185 13.7047C577.018 13.7047 577.682 13.9 578.177 14.2906C578.697 14.6551 579.088 15.2541 579.348 16.0873C579.635 16.9206 579.817 17.9883 579.895 19.2903C579.999 20.5923 580.052 22.1807 580.052 24.0556C580.052 25.9305 579.999 27.5319 579.895 28.86C579.817 30.162 579.635 31.2296 579.348 32.0629C579.088 32.8701 578.697 33.469 578.177 33.8596C577.682 34.2242 577.018 34.4065 576.185 34.4065C575.351 34.4065 574.674 34.2242 574.153 33.8596C573.659 33.469 573.268 32.8701 572.982 32.0629C572.721 31.2296 572.539 30.162 572.435 28.86C572.357 27.5319 572.318 25.9305 572.318 24.0556ZM566.693 24.0556C566.693 26.1909 566.784 28.1439 566.966 29.9146C567.175 31.6853 567.604 33.2086 568.255 34.4846C568.932 35.7606 569.896 36.7371 571.146 37.4141C572.396 38.0911 574.075 38.4297 576.185 38.4297C578.294 38.4297 579.973 38.0911 581.223 37.4141C582.473 36.7371 583.424 35.7606 584.075 34.4846C584.752 33.2086 585.181 31.6853 585.364 29.9146C585.572 28.1439 585.676 26.1909 585.676 24.0556C585.676 21.9463 585.572 20.0064 585.364 18.2356C585.181 16.4389 584.752 14.9025 584.075 13.6266C583.424 12.3506 582.473 11.3611 581.223 10.658C579.973 9.92888 578.294 9.56432 576.185 9.56432C574.075 9.56432 572.396 9.92888 571.146 10.658C569.896 11.3611 568.932 12.3506 568.255 13.6266C567.604 14.9025 567.175 16.4389 566.966 18.2356C566.784 20.0064 566.693 21.9463 566.693 24.0556Z" fill="#201B1C"/>
<rect x="-527" y="59" width="4" height="1012" transform="rotate(-90 -527 59)" fill="#F8DEA3"/>
</svg>
