<svg width="409" height="39" viewBox="0 0 409 39" fill="none" xmlns="http://www.w3.org/2000/svg">
<rect y="39" width="4" height="304" transform="rotate(-90 0 39)" fill="#FD9792"/>
<path d="M70.875 18.5937L68.7188 8.5625H68.6563L66.5 18.5937H70.875ZM71.4688 4.6875L77.375 27H72.6875L71.6563 22.2812H65.7188L64.6875 27H60L65.9063 4.6875H71.4688ZM95.9656 12.2187H100.466C100.466 11.4062 100.403 10.5417 100.278 9.625C100.174 8.6875 99.8927 7.82292 99.4343 7.03125C98.976 6.21875 98.2781 5.55208 97.3406 5.03125C96.4239 4.51042 95.1635 4.25 93.5593 4.25C91.8718 4.25 90.5281 4.54167 89.5281 5.125C88.5281 5.6875 87.7572 6.47917 87.2156 7.5C86.6947 8.52083 86.351 9.75 86.1843 11.1875C86.0385 12.6042 85.9656 14.1562 85.9656 15.8437C85.9656 17.5521 86.0385 19.1146 86.1843 20.5312C86.351 21.9479 86.6947 23.1667 87.2156 24.1875C87.7572 25.2083 88.5281 25.9896 89.5281 26.5312C90.5281 27.0729 91.8718 27.3438 93.5593 27.3438C95.0385 27.3438 96.2364 27.1146 97.1531 26.6562C98.0906 26.1979 98.8093 25.5625 99.3093 24.75C99.8302 23.9375 100.184 22.9896 100.372 21.9062C100.559 20.8229 100.653 19.6771 100.653 18.4687H96.1531C96.1531 19.6771 96.0802 20.6562 95.9343 21.4062C95.7885 22.1354 95.5906 22.7083 95.3406 23.125C95.0906 23.5208 94.7885 23.7917 94.4343 23.9375C94.101 24.0625 93.7364 24.125 93.3406 24.125C92.8614 24.125 92.4343 24.0312 92.0593 23.8437C91.7052 23.6354 91.4031 23.25 91.1531 22.6875C90.9239 22.1042 90.7468 21.2917 90.6218 20.25C90.5177 19.2083 90.4656 17.8437 90.4656 16.1562C90.4656 14.5729 90.5072 13.2396 90.5906 12.1562C90.6739 11.0521 90.8197 10.1667 91.0281 9.5C91.2364 8.8125 91.5177 8.32291 91.8718 8.03125C92.2468 7.71875 92.7156 7.5625 93.2781 7.5625C94.2989 7.5625 94.9968 7.9375 95.3718 8.6875C95.7677 9.41667 95.9656 10.5937 95.9656 12.2187ZM103.438 27H107.938V4.6875H103.438V27ZM111.276 4.6875V27H115.776V17.5625H118.182C119.119 17.5625 119.786 17.8125 120.182 18.3125C120.578 18.8125 120.796 19.5 120.838 20.375L120.963 24.6562C120.984 25.0937 121.026 25.5208 121.088 25.9375C121.151 26.3333 121.296 26.6875 121.526 27H126.401V26.8125C125.984 26.5833 125.713 26.1562 125.588 25.5312C125.505 24.9062 125.442 24 125.401 22.8125C125.38 22.2083 125.359 21.6667 125.338 21.1875C125.317 20.6875 125.286 20.2292 125.244 19.8125C125.119 18.5625 124.796 17.6562 124.276 17.0937C123.755 16.5312 122.932 16.1667 121.807 16V15.9375C123.078 15.6667 124.015 15.0625 124.619 14.125C125.224 13.1667 125.526 11.9375 125.526 10.4375C125.526 8.5 125.005 7.0625 123.963 6.125C122.921 5.16667 121.463 4.6875 119.588 4.6875H111.276ZM115.776 14.4375V8H117.901C119.984 8 121.026 9.03125 121.026 11.0937C121.026 12.3021 120.734 13.1667 120.151 13.6875C119.567 14.1875 118.734 14.4375 117.651 14.4375H115.776ZM138.171 12.2187H142.671C142.671 11.4062 142.609 10.5417 142.484 9.625C142.38 8.6875 142.098 7.82292 141.64 7.03125C141.182 6.21875 140.484 5.55208 139.546 5.03125C138.63 4.51042 137.369 4.25 135.765 4.25C134.078 4.25 132.734 4.54167 131.734 5.125C130.734 5.6875 129.963 6.47917 129.421 7.5C128.901 8.52083 128.557 9.75 128.39 11.1875C128.244 12.6042 128.171 14.1562 128.171 15.8437C128.171 17.5521 128.244 19.1146 128.39 20.5312C128.557 21.9479 128.901 23.1667 129.421 24.1875C129.963 25.2083 130.734 25.9896 131.734 26.5312C132.734 27.0729 134.078 27.3438 135.765 27.3438C137.244 27.3438 138.442 27.1146 139.359 26.6562C140.296 26.1979 141.015 25.5625 141.515 24.75C142.036 23.9375 142.39 22.9896 142.578 21.9062C142.765 20.8229 142.859 19.6771 142.859 18.4687H138.359C138.359 19.6771 138.286 20.6562 138.14 21.4062C137.994 22.1354 137.796 22.7083 137.546 23.125C137.296 23.5208 136.994 23.7917 136.64 23.9375C136.307 24.0625 135.942 24.125 135.546 24.125C135.067 24.125 134.64 24.0312 134.265 23.8437C133.911 23.6354 133.609 23.25 133.359 22.6875C133.13 22.1042 132.953 21.2917 132.828 20.25C132.723 19.2083 132.671 17.8437 132.671 16.1562C132.671 14.5729 132.713 13.2396 132.796 12.1562C132.88 11.0521 133.026 10.1667 133.234 9.5C133.442 8.8125 133.723 8.32291 134.078 8.03125C134.453 7.71875 134.921 7.5625 135.484 7.5625C136.505 7.5625 137.203 7.9375 137.578 8.6875C137.973 9.41667 138.171 10.5937 138.171 12.2187ZM149.644 4.6875H145.144V20.25C145.144 21.75 145.341 22.9687 145.737 23.9062C146.133 24.8437 146.664 25.5729 147.331 26.0937C147.998 26.5937 148.758 26.9271 149.612 27.0938C150.466 27.2604 151.352 27.3438 152.269 27.3438C153.185 27.3438 154.071 27.25 154.925 27.0625C155.779 26.875 156.539 26.5104 157.206 25.9688C157.873 25.4271 158.404 24.6979 158.8 23.7812C159.196 22.8437 159.394 21.6667 159.394 20.25V4.6875H154.894V20.25C154.894 20.8125 154.852 21.3333 154.769 21.8125C154.706 22.2708 154.571 22.6771 154.362 23.0312C154.175 23.3646 153.914 23.6354 153.581 23.8437C153.248 24.0312 152.81 24.125 152.269 24.125C151.748 24.125 151.31 24.0312 150.956 23.8437C150.623 23.6354 150.352 23.3646 150.144 23.0312C149.956 22.6771 149.821 22.2708 149.737 21.8125C149.675 21.3333 149.644 20.8125 149.644 20.25V4.6875ZM162.24 27H174.709V23.3125H166.74V4.6875H162.24V27ZM186.018 18.5937L183.862 8.5625H183.799L181.643 18.5937H186.018ZM186.612 4.6875L192.518 27H187.83L186.799 22.2812H180.862L179.83 27H175.143L181.049 4.6875H186.612ZM194.07 4.6875V27H198.57V17.5625H200.976C201.914 17.5625 202.58 17.8125 202.976 18.3125C203.372 18.8125 203.591 19.5 203.632 20.375L203.757 24.6562C203.778 25.0937 203.82 25.5208 203.882 25.9375C203.945 26.3333 204.091 26.6875 204.32 27H209.195V26.8125C208.778 26.5833 208.507 26.1562 208.382 25.5312C208.299 24.9062 208.236 24 208.195 22.8125C208.174 22.2083 208.153 21.6667 208.132 21.1875C208.111 20.6875 208.08 20.2292 208.039 19.8125C207.914 18.5625 207.591 17.6562 207.07 17.0937C206.549 16.5312 205.726 16.1667 204.601 16V15.9375C205.872 15.6667 206.809 15.0625 207.414 14.125C208.018 13.1667 208.32 11.9375 208.32 10.4375C208.32 8.5 207.799 7.0625 206.757 6.125C205.716 5.16667 204.257 4.6875 202.382 4.6875H194.07ZM198.57 14.4375V8H200.695C202.778 8 203.82 9.03125 203.82 11.0937C203.82 12.3021 203.528 13.1667 202.945 13.6875C202.361 14.1875 201.528 14.4375 200.445 14.4375H198.57ZM223.66 23.6875V8H225.567C226.421 8 227.098 8.16667 227.598 8.5C228.119 8.8125 228.504 9.29167 228.754 9.9375C229.025 10.5625 229.202 11.3542 229.285 12.3125C229.369 13.2708 229.41 14.3854 229.41 15.6562C229.41 17.1771 229.358 18.4479 229.254 19.4687C229.171 20.4896 228.983 21.3125 228.692 21.9375C228.421 22.5625 228.046 23.0104 227.567 23.2812C227.087 23.5521 226.452 23.6875 225.66 23.6875H223.66ZM219.16 4.6875V27H226.254C227.754 27 228.994 26.7708 229.973 26.3125C230.952 25.8542 231.733 25.1562 232.317 24.2187C232.9 23.2812 233.306 22.0937 233.535 20.6562C233.785 19.1979 233.91 17.4896 233.91 15.5312C233.91 13.8854 233.817 12.3958 233.629 11.0625C233.442 9.72917 233.077 8.59375 232.535 7.65625C232.015 6.69792 231.275 5.96875 230.317 5.46875C229.358 4.94792 228.098 4.6875 226.535 4.6875H219.16ZM249.355 4.6875H236.886V27H249.667V23.3125H241.386V17.3125H248.886V13.625H241.386V8.375H249.355V4.6875ZM255.556 20.0312H251.056V20.9375C251.056 23 251.598 24.5833 252.681 25.6875C253.785 26.7917 255.608 27.3438 258.15 27.3438C260.587 27.3438 262.483 26.8125 263.837 25.75C265.212 24.6667 265.9 22.9479 265.9 20.5937C265.9 19.9062 265.837 19.2812 265.712 18.7187C265.587 18.1562 265.358 17.6458 265.025 17.1875C264.712 16.7083 264.285 16.2708 263.744 15.875C263.202 15.4583 262.504 15.0625 261.65 14.6875L258.181 13.1875C257.223 12.7917 256.598 12.3646 256.306 11.9062C256.014 11.4271 255.869 10.8437 255.869 10.1562C255.869 9.82292 255.9 9.5 255.962 9.1875C256.046 8.875 256.181 8.60417 256.369 8.375C256.577 8.125 256.848 7.92708 257.181 7.78125C257.514 7.63542 257.931 7.5625 258.431 7.5625C259.306 7.5625 259.931 7.85417 260.306 8.4375C260.681 9 260.869 9.8125 260.869 10.875H265.181V10.25C265.181 9.1875 265.004 8.28125 264.65 7.53125C264.317 6.76042 263.837 6.13542 263.212 5.65625C262.608 5.15625 261.879 4.80208 261.025 4.59375C260.192 4.36458 259.275 4.25 258.275 4.25C256.129 4.25 254.442 4.79167 253.212 5.875C251.983 6.95833 251.369 8.60417 251.369 10.8125C251.369 11.7292 251.483 12.5417 251.712 13.25C251.942 13.9375 252.296 14.5521 252.775 15.0937C253.275 15.6146 253.889 16.0729 254.619 16.4687C255.348 16.8646 256.212 17.2292 257.212 17.5625C257.962 17.8125 258.587 18.0625 259.087 18.3125C259.608 18.5417 260.025 18.8021 260.337 19.0937C260.65 19.3854 260.869 19.7187 260.994 20.0937C261.139 20.4479 261.212 20.875 261.212 21.375C261.212 22.3125 260.931 23.0104 260.369 23.4687C259.827 23.9062 259.212 24.125 258.525 24.125C257.942 24.125 257.452 24.0417 257.056 23.875C256.681 23.7083 256.379 23.4792 256.15 23.1875C255.921 22.8958 255.764 22.5417 255.681 22.125C255.598 21.6875 255.556 21.2083 255.556 20.6875V20.0312ZM268.355 27H272.855V4.6875H268.355V27ZM286.099 11.3125H290.411C290.411 9.04167 289.87 7.30208 288.786 6.09375C287.703 4.86458 285.932 4.25 283.474 4.25C282.036 4.25 280.838 4.48958 279.88 4.96875C278.922 5.44792 278.151 6.16667 277.568 7.125C276.984 8.0625 276.568 9.23958 276.318 10.6562C276.088 12.0729 275.974 13.7187 275.974 15.5937C275.974 17.5312 276.057 19.2396 276.224 20.7187C276.391 22.1771 276.713 23.4062 277.193 24.4062C277.693 25.4062 278.37 26.1458 279.224 26.625C280.099 27.1042 281.224 27.3438 282.599 27.3438C283.661 27.3438 284.568 27.1667 285.318 26.8125C286.088 26.4375 286.745 25.8125 287.286 24.9375H287.349V27H290.661V14.9687H283.38V18.2812H286.349V20.5625C286.349 21.1667 286.255 21.6979 286.068 22.1562C285.88 22.5937 285.641 22.9583 285.349 23.25C285.078 23.5417 284.776 23.7604 284.443 23.9062C284.13 24.0521 283.838 24.125 283.568 24.125C282.922 24.125 282.391 23.9271 281.974 23.5312C281.578 23.1146 281.266 22.5312 281.036 21.7812C280.828 21.0104 280.682 20.0833 280.599 19C280.516 17.9167 280.474 16.7083 280.474 15.375C280.474 12.5833 280.713 10.5833 281.193 9.375C281.672 8.16667 282.453 7.5625 283.536 7.5625C283.995 7.5625 284.38 7.6875 284.693 7.9375C285.026 8.16667 285.297 8.46875 285.505 8.84375C285.713 9.19792 285.859 9.59375 285.943 10.0312C286.047 10.4687 286.099 10.8958 286.099 11.3125ZM298.745 4.6875H293.557V27H297.682V11.375H297.745L303.245 27H308.37V4.6875H304.245V19.9687H304.182L298.745 4.6875ZM322.634 20.0312H318.134V20.9375C318.134 23 318.675 24.5833 319.759 25.6875C320.863 26.7917 322.686 27.3438 325.228 27.3438C327.665 27.3438 329.561 26.8125 330.915 25.75C332.29 24.6667 332.978 22.9479 332.978 20.5937C332.978 19.9062 332.915 19.2812 332.79 18.7187C332.665 18.1562 332.436 17.6458 332.103 17.1875C331.79 16.7083 331.363 16.2708 330.821 15.875C330.28 15.4583 329.582 15.0625 328.728 14.6875L325.259 13.1875C324.3 12.7917 323.675 12.3646 323.384 11.9062C323.092 11.4271 322.946 10.8437 322.946 10.1562C322.946 9.82292 322.978 9.5 323.04 9.1875C323.123 8.875 323.259 8.60417 323.446 8.375C323.655 8.125 323.925 7.92708 324.259 7.78125C324.592 7.63542 325.009 7.5625 325.509 7.5625C326.384 7.5625 327.009 7.85417 327.384 8.4375C327.759 9 327.946 9.8125 327.946 10.875H332.259V10.25C332.259 9.1875 332.082 8.28125 331.728 7.53125C331.394 6.76042 330.915 6.13542 330.29 5.65625C329.686 5.15625 328.957 4.80208 328.103 4.59375C327.269 4.36458 326.353 4.25 325.353 4.25C323.207 4.25 321.519 4.79167 320.29 5.875C319.061 6.95833 318.446 8.60417 318.446 10.8125C318.446 11.7292 318.561 12.5417 318.79 13.25C319.019 13.9375 319.373 14.5521 319.853 15.0937C320.353 15.6146 320.967 16.0729 321.696 16.4687C322.425 16.8646 323.29 17.2292 324.29 17.5625C325.04 17.8125 325.665 18.0625 326.165 18.3125C326.686 18.5417 327.103 18.8021 327.415 19.0937C327.728 19.3854 327.946 19.7187 328.071 20.0937C328.217 20.4479 328.29 20.875 328.29 21.375C328.29 22.3125 328.009 23.0104 327.446 23.4687C326.905 23.9062 326.29 24.125 325.603 24.125C325.019 24.125 324.53 24.0417 324.134 23.875C323.759 23.7083 323.457 23.4792 323.228 23.1875C322.998 22.8958 322.842 22.5417 322.759 22.125C322.675 21.6875 322.634 21.2083 322.634 20.6875V20.0312ZM348.276 4.6875H334.026V8.375H338.901V27H343.401V8.375H348.276V4.6875ZM354.447 4.6875H349.947V20.25C349.947 21.75 350.145 22.9687 350.541 23.9062C350.937 24.8437 351.468 25.5729 352.135 26.0937C352.801 26.5937 353.562 26.9271 354.416 27.0938C355.27 27.2604 356.155 27.3438 357.072 27.3438C357.989 27.3438 358.874 27.25 359.728 27.0625C360.582 26.875 361.343 26.5104 362.01 25.9688C362.676 25.4271 363.207 24.6979 363.603 23.7812C363.999 22.8437 364.197 21.6667 364.197 20.25V4.6875H359.697V20.25C359.697 20.8125 359.655 21.3333 359.572 21.8125C359.51 22.2708 359.374 22.6771 359.166 23.0312C358.978 23.3646 358.718 23.6354 358.385 23.8437C358.051 24.0312 357.614 24.125 357.072 24.125C356.551 24.125 356.114 24.0312 355.76 23.8437C355.426 23.6354 355.155 23.3646 354.947 23.0312C354.76 22.6771 354.624 22.2708 354.541 21.8125C354.478 21.3333 354.447 20.8125 354.447 20.25V4.6875ZM371.762 23.6875V8H373.668C374.523 8 375.2 8.16667 375.7 8.5C376.221 8.8125 376.606 9.29167 376.856 9.9375C377.127 10.5625 377.304 11.3542 377.387 12.3125C377.471 13.2708 377.512 14.3854 377.512 15.6562C377.512 17.1771 377.46 18.4479 377.356 19.4687C377.273 20.4896 377.085 21.3125 376.793 21.9375C376.523 22.5625 376.148 23.0104 375.668 23.2812C375.189 23.5521 374.554 23.6875 373.762 23.6875H371.762ZM367.262 4.6875V27H374.356C375.856 27 377.096 26.7708 378.075 26.3125C379.054 25.8542 379.835 25.1562 380.418 24.2187C381.002 23.2812 381.408 22.0937 381.637 20.6562C381.887 19.1979 382.012 17.4896 382.012 15.5312C382.012 13.8854 381.918 12.3958 381.731 11.0625C381.543 9.72917 381.179 8.59375 380.637 7.65625C380.116 6.69792 379.377 5.96875 378.418 5.46875C377.46 4.94792 376.2 4.6875 374.637 4.6875H367.262ZM385.207 27H389.707V4.6875H385.207V27ZM397.076 15.8437C397.076 14.3437 397.107 13.0729 397.169 12.0312C397.253 10.9896 397.399 10.1354 397.607 9.46875C397.836 8.80208 398.149 8.32291 398.544 8.03125C398.961 7.71875 399.503 7.5625 400.169 7.5625C400.836 7.5625 401.367 7.71875 401.763 8.03125C402.18 8.32291 402.492 8.80208 402.701 9.46875C402.93 10.1354 403.076 10.9896 403.138 12.0312C403.222 13.0729 403.263 14.3437 403.263 15.8437C403.263 17.3437 403.222 18.625 403.138 19.6875C403.076 20.7292 402.93 21.5833 402.701 22.25C402.492 22.8958 402.18 23.375 401.763 23.6875C401.367 23.9792 400.836 24.125 400.169 24.125C399.503 24.125 398.961 23.9792 398.544 23.6875C398.149 23.375 397.836 22.8958 397.607 22.25C397.399 21.5833 397.253 20.7292 397.169 19.6875C397.107 18.625 397.076 17.3437 397.076 15.8437ZM392.576 15.8437C392.576 17.5521 392.649 19.1146 392.794 20.5312C392.961 21.9479 393.305 23.1667 393.826 24.1875C394.367 25.2083 395.138 25.9896 396.138 26.5312C397.138 27.0729 398.482 27.3438 400.169 27.3438C401.857 27.3438 403.201 27.0729 404.201 26.5312C405.201 25.9896 405.961 25.2083 406.482 24.1875C407.024 23.1667 407.367 21.9479 407.513 20.5312C407.68 19.1146 407.763 17.5521 407.763 15.8437C407.763 14.1562 407.68 12.6042 407.513 11.1875C407.367 9.75 407.024 8.52083 406.482 7.5C405.961 6.47917 405.201 5.6875 404.201 5.125C403.201 4.54167 401.857 4.25 400.169 4.25C398.482 4.25 397.138 4.54167 396.138 5.125C395.138 5.6875 394.367 6.47917 393.826 7.5C393.305 8.52083 392.961 9.75 392.794 11.1875C392.649 12.6042 392.576 14.1562 392.576 15.8437Z" fill="#1B1314"/>
</svg>
